<svg version="1.2" xmlns="http://www.w3.org/2000/svg" viewBox="300 200 500 600">
	<title>foxlayne</title>
	<style>
		.s0 { fill: #3e3938 } 
		.s1 { fill: #fbfbfa } 
		.s2 { fill: #fbfbfb } 
		.s3 { fill: #2d2322 } 
		.s4 { fill: #7fad49 } 
		.s5 { fill: #3e3836 } 
		.s6 { fill: #2d2221 } 
		.s7 { fill: #2c2220 } 
		.s8 { fill: #80af4a } 
		.s9 { fill: #c2c4c6 } 
		.s10 { fill: #2b2120 } 
		.s11 { fill: #7ead43 } 
		.s12 { fill: #7fae44 } 
		.s13 { fill: #77aa3f } 
		.s14 { fill: #7aad40 } 
		.s15 { fill: #73a43e } 
		.s16 { fill: #74a63f } 
		.s17 { fill: #5b8931 } 
		.s18 { fill: #5f8b34 } 
		.s19 { fill: #598834 } 
		.s20 { fill: #2c2322 } 
		.s21 { fill: #413c3b } 
		.s22 { fill: #70a33a } 
		.s23 { fill: #c3c4c3 } 
		.s24 { fill: #5c8b32 } 
		.s25 { fill: #5a8831 } 
		.s26 { fill: #2f2424 } 
		.s27 { fill: #5e8c34 } 
		.s28 { fill: #5b8932 } 
		.s29 { fill: #5d8935 } 
		.s30 { fill: #5b882f } 
		.s31 { fill: #2b1f1f } 
		.s32 { fill: #322724 } 
		.s33 { fill: #77a843 } 
		.s34 { fill: #73a540 } 
		.s35 { fill: #5e8c36 } 
		.s36 { fill: #5d8d35 } 
		.s37 { fill: #2f2322 } 
		.s38 { fill: #3c3838 } 
		.s39 { fill: #7dab46 } 
		.s40 { fill: #7aa948 } 
		.s41 { fill: #7bae44 } 
		.s42 { fill: #7daf46 } 
		.s43 { fill: #71a443 } 
		.s44 { fill: #cecfd0 } 
		.s45 { fill: #2f2222 } 
		.s46 { fill: #63903b } 
		.s47 { fill: #65943c } 
		.s48 { fill: #f3f4f3 } 
		.s49 { fill: #312927 } 
		.s50 { fill: #588833 } 
		.s51 { fill: #67993a } 
		.s52 { fill: #6b9a3e } 
		.s53 { fill: #75a241 } 
		.s54 { fill: #6c9d3e } 
		.s55 { fill: #6a9b3e } 
		.s56 { fill: #82b347 } 
		.s57 { fill: #c1c1c4 } 
		.s58 { fill: #83b246 } 
		.s59 { fill: #67953c } 
		.s60 { fill: #65913c } 
		.s61 { fill: #629136 } 
		.s62 { fill: #7d7a7b } 
		.s63 { fill: #706c6b } 
		.s64 { fill: #83b14d } 
		.s65 { fill: #ccced0 } 
		.s66 { fill: #736f6c } 
		.s67 { fill: #689340 } 
		.s68 { fill: #6b9741 } 
		.s69 { fill: #e4e3e3 } 
		.s70 { fill: #f4f4f2 } 
		.s71 { fill: #66913a } 
		.s72 { fill: #71a343 } 
		.s73 { fill: #5d8e3b } 
		.s74 { fill: #5e8e39 } 
		.s75 { fill: #659b3c } 
		.s76 { fill: #6ea43c } 
		.s77 { fill: #598a36 } 
		.s78 { fill: #423937 } 
		.s79 { fill: #8bbc53 } 
		.s80 { fill: #3b302d } 
		.s81 { fill: #6aa044 } 
		.s82 { fill: #6b6868 } 
		.s83 { fill: #689d39 } 
		.s84 { fill: #62953d } 
		.s85 { fill: #b9d96b } 
		.s86 { fill: #443c3a } 
		.s87 { fill: #ddddde } 
		.s88 { fill: #b8d86c } 
		.s89 { fill: #f4f3f3 } 
		.s90 { fill: #e8eaea } 
		.s91 { fill: #b2b2b4 } 
		.s92 { fill: #80af4c } 
		.s93 { fill: #689b3e } 
		.s94 { fill: #1e1313 } 
		.s95 { fill: #709e4b } 
		.s96 { fill: #75a73d } 
		.s97 { fill: #608d38 } 
		.s98 { fill: #e0e1e1 } 
		.s99 { fill: #e8eae2 } 
		.s100 { fill: #797472 } 
		.s101 { fill: #bcd870 } 
		.s102 { fill: #a9b997 } 
		.s103 { fill: #393030 } 
		.s104 { fill: #322926 } 
		.s105 { fill: #7ba848 } 
		.s106 { fill: #c7c9ca } 
		.s107 { fill: #433837 } 
		.s108 { fill: #696463 } 
		.s109 { fill: #658f3f } 
		.s110 { fill: #669934 } 
		.s111 { fill: #709a49 } 
		.s112 { fill: #332927 } 
		.s113 { fill: #e2e4e4 } 
		.s114 { fill: #a6d25b } 
		.s115 { fill: #eff5e9 } 
		.s116 { fill: #abd05e } 
		.s117 { fill: #3b3330 } 
		.s118 { fill: #63933f } 
		.s119 { fill: #382a29 } 
		.s120 { fill: #71a141 } 
		.s121 { fill: #e1e0e1 } 
		.s122 { fill: #6c6b6c } 
		.s123 { fill: #679543 } 
		.s124 { fill: #84b157 } 
		.s125 { fill: #59862f } 
		.s126 { fill: #71a63f } 
		.s127 { fill: #e6e5e6 } 
		.s128 { fill: #6e6b6b } 
		.s129 { fill: #75a057 } 
		.s130 { fill: #6c6c6d } 
		.s131 { fill: #eeece5 } 
		.s132 { fill: #3e3533 } 
		.s133 { fill: #646160 } 
		.s134 { fill: #7ba553 } 
		.s135 { fill: #2a1f1e } 
		.s136 { fill: #b3b5b6 } 
		.s137 { fill: #77a745 } 
		.s138 { fill: #aacc63 } 
		.s139 { fill: #77aa47 } 
		.s140 { fill: #4e4341 } 
		.s141 { fill: #5e5958 } 
		.s142 { fill: #38312f } 
		.s143 { fill: #7eb248 } 
		.s144 { fill: #86b651 } 
		.s145 { fill: #332e2d } 
		.s146 { fill: #6c9c3e } 
		.s147 { fill: #c3bfbe } 
		.s148 { fill: #6c6764 } 
		.s149 { fill: #e5e9de } 
		.s150 { fill: #493d39 } 
		.s151 { fill: #74a343 } 
		.s152 { fill: #a8cf5d } 
		.s153 { fill: #69983c } 
		.s154 { fill: #e0dedf } 
		.s155 { fill: #84b154 } 
		.s156 { fill: #372e2c } 
		.s157 { fill: #362c2a } 
		.s158 { fill: #8cb857 } 
		.s159 { fill: #add563 } 
		.s160 { fill: #92bc5e } 
		.s161 { fill: #719e3d } 
		.s162 { fill: #aed067 } 
		.s163 { fill: #757171 } 
		.s164 { fill: #7dad4a } 
		.s165 { fill: #8fb961 } 
		.s166 { fill: #719a49 } 
		.s167 { fill: #bebcbd } 
		.s168 { fill: #81b548 } 
		.s169 { fill: #628c3a } 
		.s170 { fill: #739d45 } 
		.s171 { fill: #dcd9d9 } 
		.s172 { fill: #e3e3e3 } 
		.s173 { fill: #291f1d } 
		.s174 { fill: #75aa42 } 
		.s175 { fill: #e7ecdb } 
		.s176 { fill: #6b9744 } 
		.s177 { fill: #c3ceb3 } 
		.s178 { fill: #e6e6e6 } 
		.s179 { fill: #7a7674 } 
		.s180 { fill: #e0ead4 } 
		.s181 { fill: #84b251 } 
		.s182 { fill: #e1e2de } 
		.s183 { fill: #6c6968 } 
		.s184 { fill: #d6e0cc } 
		.s185 { fill: #787474 } 
		.s186 { fill: #598932 } 
		.s187 { fill: #3e3432 } 
		.s188 { fill: #689937 } 
		.s189 { fill: #423b39 } 
		.s190 { fill: #787778 } 
		.s191 { fill: #578330 } 
		.s192 { fill: #d9e4cf } 
		.s193 { fill: #729853 } 
		.s194 { fill: #709f40 } 
		.s195 { fill: #79a946 } 
		.s196 { fill: #73a23f } 
		.s197 { fill: #97c05a } 
		.s198 { fill: #a9d260 } 
		.s199 { fill: #77aa41 } 
		.s200 { fill: #d1ced0 } 
		.s201 { fill: #d6dadc } 
		.s202 { fill: #e2ebda } 
		.s203 { fill: #706b6c } 
		.s204 { fill: #6b9a41 } 
		.s205 { fill: #211815 } 
		.s206 { fill: #6d9648 } 
		.s207 { fill: #e7e7df } 
		.s208 { fill: #76af45 } 
		.s209 { fill: #cac8ca } 
		.s210 { fill: #6a6661 } 
		.s211 { fill: #5b5452 } 
		.s212 { fill: #302725 } 
		.s213 { fill: #649338 } 
		.s214 { fill: #526935 } 
		.s215 { fill: #cbdda9 } 
		.s216 { fill: #e4ead8 } 
		.s217 { fill: #5e8c2f } 
		.s218 { fill: #73a53c } 
		.s219 { fill: #2a1d1c } 
		.s220 { fill: #ebeded } 
		.s221 { fill: #5a9133 } 
		.s222 { fill: #72a045 } 
		.s223 { fill: #adcf63 } 
		.s224 { fill: #7ea859 } 
		.s225 { fill: #6c9642 } 
		.s226 { fill: #2e2827 } 
		.s227 { fill: #709d47 } 
		.s228 { fill: #a3ca58 } 
		.s229 { fill: #5e9537 } 
		.s230 { fill: #61913b } 
		.s231 { fill: #bfbec0 } 
		.s232 { fill: #7ba652 } 
		.s233 { fill: #403433 } 
		.s234 { fill: #39312f } 
		.s235 { fill: #d4d8cc } 
		.s236 { fill: #6f9947 } 
		.s237 { fill: #578933 } 
		.s238 { fill: #92bc69 } 
		.s239 { fill: #6a983e } 
		.s240 { fill: #3a2e2c } 
		.s241 { fill: #82b54d } 
		.s242 { fill: #cac6c6 } 
		.s243 { fill: #86b250 } 
		.s244 { fill: #362b2a } 
		.s245 { fill: #8aba50 } 
	</style>
	<path class="s0" d="m564.25 389.94c1.86 0.03 1.86 0.03 3.75 0.06q0.49 1.48 1 3c2.64 0.33 5.28 0.66 8 1q0 1.97 0 4 1.05 0.28 2.13 0.56c5.22 2.61 9.33 7.75 11.4 13.23 1.87 8.76 1.3 16.68-3.53 24.21q-0.99 1.48-2 3c0.62 0.79 0.62 0.79 1.25 1.59 8.41 11.28 13.59 24.38 18.4 37.52 1.55 4.21 1.55 4.21 3.98 7.95 2.04 2.89 2.14 5.71 2.56 9.19q0.23 1.89 0.48 3.83 0.16 1.44 0.33 2.92c3.3 1.32 6.6 2.64 10 4-1 5-1 5-2.75 8.31-2.13 4.09-3.55 8.31-4.94 12.69-0.32 1-0.32 1-0.65 2.01-1.07 3.49-1.81 6.79-2.18 10.43q-0.24 1.75-0.48 3.56c-2.82 1.41-4.17 0.51-7.12-0.44q-1.36-0.43-2.76-0.87-1.05-0.34-2.12-0.69 0.25-1.17 0.5-2.38c0.56-2.5 0.56-2.5 0.5-4.62-2.31 2.64-4.62 5.28-7 8q-1.48-0.49-3-1c0.5-4.34 3.28-6.75 6-10q0.52-1.35 1.06-2.75c0.94-2.25 0.94-2.25 2.94-3.19 2.27-0.94 2.27-0.94 3.19-3.69 0.91-3.8 1.41-7.48 1.81-11.37q1.48 0 3 0-0.47-2.88-0.94-5.75c-0.26-1.6-0.26-1.6-0.52-3.23-0.43-2.38-0.91-4.69-1.54-7.02q0.99 0 2 0c-0.74-1.31-0.74-1.31-1.5-2.65-3.87-6.96-7.23-13.88-10-21.35-4.74-12.67-10.59-23.71-19.5-34q-0.91-1.2-1.86-2.45c-10.54-12.56-29.12-23.22-45.57-24.78-3.1 0.07-5.61 0.24-8.57 1.23 0.88-5.75 0.88-5.75 2-8-5.06 0.38-8.18 2.15-12.27 4.94-1.73 1.06-1.73 1.06-3.73 1.06 0.33-2.64 0.66-5.28 1-8-0.78 0.69-0.78 0.69-1.58 1.39-6.71 5.59-13.22 8.14-21.55 10.49-7.41 2.13-13.65 4.91-20.29 8.73-2.58 1.39-2.58 1.39-4.58 1.39q0.25 1.79 0.5 3.62c0.02 2.92-0.15 4-2.14 6.18-2.73 2.04-5.44 3.77-8.53 5.21-2.59 1.4-3.36 3.48-4.83 5.99q-1.02 0.74-2.06 1.5c-2.44 1.88-2.91 3.64-3.94 6.5-0.99 0.99-0.99 0.99-2 2-0.53 2-0.53 2-0.87 4.25-0.9 4.31-2.13 7.41-5.13 10.75-2.64 0.15-2.64 0.15-5 0-1.85 6.5-3.49 13.04-5 19.63-1.36 5.92-2.92 11.65-5 17.37q2.46-0.99 5-2c-0.66 6.27-1.32 12.54-2 19q1.97-0.49 4-1c0.4 1.32 0.4 1.32 0.8 2.67q0.53 1.73 1.08 3.52 0.51 1.71 1.05 3.48c0.91 2.84 1.92 5.58 3.07 8.33q0.68-0.74 1.38-1.5c1.62-1.5 1.62-1.5 3.62-1.5q0.49 1.04 0.99 2.12 0.65 1.36 1.32 2.75 0.64 1.36 1.3 2.75c1.31 2.64 1.31 2.64 4.39 4.38q0.49-0.98 1-2 0.99 0 2 0 1.83 2.22 3.63 4.46c1.84 2.06 3.93 3.28 6.37 4.54q0.49-1.48 1-3 0.9 0.61 1.83 1.24 1.19 0.81 2.42 1.63 1.18 0.8 2.39 1.62c2.08 1.33 4.14 2.46 6.36 3.51q0-0.98 0-2 1.06 0.31 2.16 0.62c1.44 0.41 1.44 0.41 2.9 0.82q1.4 0.4 2.85 0.81c8.84 2.15 17.75 1.99 26.78 2 1.17 0 1.17 0 2.38 0 22.41-0.03 43.39-3.13 63.67-13.1 3.83-1.82 6.18-2.54 10.26-1.15-1 3-1 3-2.65 4.04q-1.06 0.46-2.14 0.93-1.16 0.51-2.35 1.04-1.23 0.52-2.49 1.05-1.18 0.53-2.41 1.07c-4.59 1.99-9.11 3.62-13.96 4.87 2.41 2.81 2.89 2.99 6.84 3.5q2.33 0.07 4.66 0.06c1.21 0 1.21 0 2.44 0.01 7.26-0.2 13.79-2.3 19.06-7.57 5.54-0.53 10.43-0.76 15.5 1.69 3.89 3.59 7.3 6.83 7.74 12.25 0.22 10.97-1.65 18.1-9.24 26.06q-1.32 0.83-2.69 1.69c-3.71 3.71-3.71 8.24-4.31 13.31q-0.17 1.23-0.34 2.5-0.35 2.74-0.66 5.5c-3.63-0.66-7.26-1.32-11-2 0-5 0-5 2-8q-1.04 0.65-2.12 1.31-1.36 0.83-2.75 1.69-1.36 0.83-2.75 1.69c-2.38 1.31-2.38 1.31-4.38 1.31q0.32 1.1 0.66 2.23c0.41 1.46 0.41 1.46 0.84 2.96q0.42 1.43 0.84 2.92c0.63 2.74 0.78 5.09 0.66 7.89q1.97 0 4 0c0.33-3.96 0.66-7.92 1-12q2.68 0.43 5.44 0.88c1.51 0.24 1.51 0.24 3.06 0.49q1.23 0.31 2.5 0.63c1.44 2.88 0.29 4.79-0.52 7.76-0.74 3.46-0.61 6.71-0.48 10.24 0.9-0.83 0.9-0.83 1.83-1.68q1.19-1.08 2.42-2.2 1.18-1.07 2.39-2.17c4.5-3.71 7.5-4.36 13.36-3.95q2.53 0.94 5 2-0.2-1.17-0.4-2.38-0.27-1.57-0.54-3.18-0.26-1.54-0.52-3.13c-0.56-3.43-1.05-6.87-1.54-10.31 8.91 0 17.82 0 27 0-0.33 2.33-0.66 4.66-1 7.06-2.55 20.78-0.48 41.27 2 61.94q0.37-0.79 0.75-1.6c1.92-3.96 3.78-7.47 6.75-10.77q0.85-0.97 1.72-1.97c1.83-1.7 3.5-2.67 5.78-3.66-1.79 4.59-3.87 9.02-5.98 13.48-1.21 2.53-1.21 2.53-1.02 5.52q0.79-0.61 1.61-1.24 1.05-0.81 2.14-1.63 1.04-0.8 2.11-1.62c5.2-3.67 5.2-3.67 8.39-3.13 0.87 0.3 0.87 0.3 1.75 0.62q-0.92 0.78-1.86 1.57c-1.22 1.05-1.22 1.05-2.45 2.12-1.2 1.02-1.2 1.02-2.43 2.07-2.28 2.26-3.74 4.43-5.26 7.24q0.92 0.27 1.86 0.55 1.21 0.38 2.45 0.76 1.2 0.37 2.43 0.74c2.39 1 3.65 1.93 5.26 3.95 0 2.88-0.91 3.91-2.88 6-8.65 5.54-18.96 7.25-28.93 9.06q-1.04 0.19-2.11 0.39c-41.12 7.51-83.35 7.92-125.03 7.87q-6.03-0.01-12.06 0.02c-33.75 0.15-67.23-1.36-100.84-4.37q-1.34-0.12-2.72-0.24c-7.72-0.71-15.34-1.79-22.99-3.1q-1.83-0.3-3.71-0.6c-24.42-4.1-24.42-4.1-31.73-11.03-1-2.5-1-2.5 0-5 3.36-2.74 6.89-4.63 11-6-1.37-5.65-5.68-8.51-10-12 3-1 3-1 5.12-0.14 4.11 2.36 7.77 4.49 10.88 8.14-0.78-5.39-3.28-9.6-5.82-14.36q-0.58-1.3-1.18-2.64 0.49-0.99 1-2c6.38 5.06 11.38 10.15 14 18q0.72-4 1.44-8 0.2-1.11 0.41-2.25 0.19-1.11 0.4-2.25 0.18-1 0.36-2.03c0.99-6.28 1.54-12.32 1.52-18.66q0-1.12 0.01-2.27 0-2.36-0.01-4.71-0.01-3.58 0.01-7.16 0-2.31-0.01-4.61 0.01-1.05 0.01-2.14c-0.02-4.47-0.5-8.42-1.14-12.92 8.91 0 17.82 0 27 0-0.48 2.46-0.96 4.92-1.46 7.46-2.06 11.67-2.1 23.35-2.23 35.16q-0.05 3.28-0.1 6.55-0.13 7.92-0.21 15.83 2.38-0.47 4.75-0.94 1.32-0.26 2.67-0.52 3.31-0.69 6.58-1.54c-0.58-0.86-0.58-0.86-1.17-1.73-7.47-11.63-10.43-23.55-8.83-37.27q1.48-3.51 3-7c0.35-3.11 0.35-3.11 0.31-6.37 0.36-7.16 1.66-13.85 3.32-20.82q0.33-1.44 0.67-2.92c4.31-17.51 11.31-34.28 18.08-50.95q1.62-4.03 3.25-8.07 0.99-2.47 2-4.94c1.19-2.96 2.36-5.9 3.37-8.93q-0.95-0.43-1.94-0.87c-2.06-1.13-2.06-1.13-3.06-3.13q-0.1-3.31-0.06-6.62 0.01-1.78 0.02-3.61 0.02-1.36 0.04-2.77c-1.98-0.49-1.98-0.49-4-1-0.18-5.15 0.42-9.52 1.68-14.51 0.26-1.03 0.26-1.03 0.52-2.08q0.55-2.17 1.11-4.34 0.85-3.29 1.67-6.6c2.95-11.66 2.95-11.66 5.02-16.47q-1.23-0.06-2.5-0.12c-6.02-1.51-10.12-5.1-13.87-9.94-2.99-5.41-3.97-9.7-3.94-15.88q-0.03-1.03-0.05-2.09c-0.01-4.78 1.07-7.83 3.36-11.97q-0.09-1.26-0.19-2.56c0.23-2.99 0.85-3.36 3.07-5.25 3.12-2.19 3.12-2.19 5.12-2.19-0.5-1.98-0.5-1.98-1-4 3.42-3.15 6.44-3.56 11-4q0.49-2.46 1-5c11.31-0.59 20.07-0.85 29.16 6.82 1.75 1.66 3.38 3.26 4.84 5.18q0 0.99 0 2 1.53-0.79 3.11-1.61c8.81-4.51 17.46-8.68 27.07-11.23 7.34-2.01 12.55-4.65 18.48-9.45 2.22-1.62 3.66-2.29 6.34-2.71 0.99 2.97 0.99 2.97 2 6q1.26-0.74 2.56-1.5c3.82-1.67 6.32-1.9 10.44-1.5 0.99 0.99 0.99 0.99 2 2-0.37 3.13-0.37 3.13-1 6q0.88 0.07 1.79 0.15c4.4 0.41 8.18 0.9 12.21 2.85q0.09-1.05 0.19-2.12c1.64-5.83 5.31-8.8 10.37-11.69 4.29-2.3 7.83-3.33 12.69-3.25z"/>
	<path class="s1" d="m507 399c1.03 2.79 1.05 3.87 0.06 6.75q-0.52 1.11-1.06 2.25 1.21-0.75 2.45-1.53 1.59-0.97 3.24-1.97 1.57-0.97 3.2-1.97c3.09-1.52 4.74-1.88 8.11-1.53-0.99 2.97-1.98 5.94-3 9q1.48-0.99 3-2c13.9-1.22 29.94 6.61 40.63 15.13q2.2 1.92 4.37 3.87c0.89 0.68 0.89 0.68 1.8 1.38 15.03 11.6 23.45 31.22 29.85 48.52 1.78 4.79 3.81 9.21 6.5 13.57 0.85 1.53 0.85 1.53 0.85 3.53q-0.98 0-2 0 0.74 1.45 1.5 2.94c1.9 4.35 1.79 8.39 1.5 13.06q-1.48 0-3 0 0.09 1.75 0.19 3.56c-0.01 4.54-0.94 7.5-3.19 11.44q-1.99 0.54-4 1-1.04 2.99-2 6-1.35 1.29-2.75 2.62c-2.05 2.26-2.25 3.17-2.2 6.29 0.77 4.84 1.74 8.67 3.95 13.09 0.66-3.3 1.32-6.6 2-10 7.62 0.87 7.62 0.87 11 2-0.65 3.52-1.51 6.89-2.56 10.31-0.41 1.33-0.41 1.33-0.82 2.68q-0.3 0.99-0.62 2.01-1.11-0.74-2.25-1.5c-4.99-2.44-10.36-2.37-15.75-1.5-3.64 1.63-6.77 3.68-10 6-3.38 1.69-7.16 1.27-10.88 1.31q-1.21 0.05-2.47 0.09c-6.06 0.06-6.06 0.06-9.22-2.42q-0.7-0.97-1.43-1.98 1.68-0.61 3.41-1.24c4.78-1.79 9.43-3.85 14.09-5.95q1.23-0.55 2.49-1.11 3.01-1.35 6.01-2.7 0-0.98 0-2c-5.58 0.6-10.2 2.63-15.31 4.81-9.08 3.75-18.01 6.51-27.69 8.19-1.49 0.26-1.49 0.26-3.01 0.53-8.78 1.42-17.36 1.81-26.23 1.79q-3.39 0-6.77 0.04c-10.41 0.05-21.67-0.17-30.99-5.36q0 0.98 0 2c-5.26-1.41-8.72-3.75-13-7q-0.49 0.98-1 2c-4.43-1.39-6.96-3.52-10-7q0-0.98 0-2-0.99 0-2 0-0.49 1.48-1 3c-3.27-3.1-5.98-5.95-8-10q0-1.48 0-3-0.99 0-2 0-0.49 1.48-1 3-0.99 0-2 0c-3.87-5.8-5.06-11.13-6-18-1.98 0.5-1.98 0.5-4 1-0.1-6.11-0.07-11.97 1-18-1.98 0.5-1.98 0.5-4 1q0.99-4.5 2-9 0.21-0.94 0.42-1.92c4.82-21.78 4.82-21.78 7.58-26.08 2.52-0.66 2.52-0.66 5-1 3.01-3.56 3.64-7.44 4.37-11.91 0.74-2.45 1.78-3.38 3.63-5.09q0.43-1.2 0.87-2.44c1.42-3.22 3.38-4.43 6.13-6.56q0.41-0.95 0.84-1.92c1.57-2.81 3.44-3.71 6.22-5.27 3.16-1.65 3.16-1.65 5.94-3.81q0.07-1.87 0.14-3.8c0.44-3.73 0.65-4.03 3.78-6.59q1.89-0.98 3.83-1.86 1.01-0.5 2.04-1.01c6.2-2.95 12.61-4.91 19.21-6.74 7.94-2.38 13.76-5.51 20-11z"/>
	<path class="s2" d="m481.85 610.59c28.45 13.06 53.72 15.6 84.15 8.41 1.62 3.54 2.1 6.13 2 10q-1.07-0.05-2.16-0.11c-20.05-1.08-20.05-1.08-37.84 7.11q-1.49 1.07-3.02 2.18c-4.64 3.33-4.64 3.33-7.98 7.82q0.99 0.49 2 1-0.72 0.74-1.46 1.5c-4.13 4.45-6.01 7.57-7.54 13.5-1.54 2.59-3.16 5.08-4.86 7.57-1.42 3.03-0.83 4.22-0.14 7.43-0.78 3.11-0.78 3.11-1.94 6.31q-0.57 1.6-1.15 3.24-0.45 1.21-0.91 2.45 0.99 0 2 0c0.5 6.44 0.5 6.44 1 13-43.36 0.55-43.36 0.55-54-3q0-1.48 0-3-0.78 0.41-1.57 0.84-1.05 0.54-2.12 1.1c-1.02 0.54-1.02 0.54-2.07 1.09-6.19 2.69-14.18 3.25-20.63 1.22-3.74-1.77-6.57-3.52-8.61-7.25-1.44-4.32-1.43-8.48-1-13 1.44-2.87 1.44-2.87 3-5q0.56-1.98 1-4 2.16-0.04 4.31-0.06c1.2-0.02 1.2-0.02 2.43-0.04 2.26 0.1 2.26 0.1 5.26 1.1q0-1.48 0-3c5.09 1.59 8.87 4.74 13 8-2.45-4.81-3.98-7.62-9-10-0.9-0.56-0.9-0.56-1.81-1.12-3.33-1.34-6.63-1.52-10.19-1.88q-0.49 1.48-1 3-3.5 1-7 2c-1.04 2.85-1.04 2.85-1.37 5.31-0.75 3.2-2.09 5.81-3.63 8.69-9.7-8.7-15.09-25.55-15.91-38.23q-0.04-1.37-0.09-2.77c-0.08-1.77-0.08-1.77-0.16-3.58-0.28-12.2 1-24.87 5.16-36.42 22.28-20.95 61.66-1.61 83.85 8.59z"/>
	<path class="s3" d="m564.25 389.94c1.86 0.03 1.86 0.03 3.75 0.06q0.49 1.48 1 3c2.64 0.33 5.28 0.66 8 1q0 1.97 0 4 1.05 0.28 2.13 0.56c5.22 2.61 9.33 7.75 11.4 13.23 1.87 8.76 1.3 16.68-3.53 24.21q-0.99 1.48-2 3c0.62 0.79 0.62 0.79 1.25 1.59 8.41 11.28 13.59 24.38 18.4 37.52 1.55 4.21 1.55 4.21 3.98 7.95 2.04 2.89 2.14 5.71 2.56 9.19q0.23 1.89 0.48 3.83 0.16 1.44 0.33 2.92c3.3 1.32 6.6 2.64 10 4-1 5-1 5-2.75 8.31-2.13 4.09-3.55 8.31-4.94 12.69q-0.32 0.99-0.65 2.01c-1.07 3.49-1.81 6.79-2.18 10.43q-0.24 1.75-0.48 3.56c-2.82 1.41-4.17 0.51-7.12-0.44q-1.36-0.43-2.76-0.87-1.05-0.34-2.12-0.69 0.25-1.17 0.5-2.38c0.56-2.5 0.56-2.5 0.5-4.62-2.31 2.64-4.62 5.28-7 8q-1.48-0.49-3-1c0.5-4.34 3.28-6.75 6-10q0.52-1.35 1.06-2.75c0.94-2.25 0.94-2.25 2.94-3.19 2.27-0.94 2.27-0.94 3.19-3.69 0.91-3.8 1.41-7.48 1.81-11.37q1.48 0 3 0-0.47-2.88-0.94-5.75-0.26-1.59-0.52-3.23c-0.43-2.38-0.91-4.69-1.54-7.02q0.99 0 2 0-0.74-1.3-1.5-2.65c-3.87-6.96-7.23-13.88-10-21.35-4.74-12.67-10.59-23.71-19.5-34q-0.91-1.2-1.86-2.45c-10.54-12.56-29.12-23.22-45.57-24.78-3.1 0.07-5.61 0.24-8.57 1.23 0.88-5.75 0.88-5.75 2-8-5.06 0.38-8.18 2.15-12.27 4.94-1.73 1.06-1.73 1.06-3.73 1.06 0.33-2.64 0.66-5.28 1-8q-0.78 0.68-1.58 1.39c-6.71 5.59-13.22 8.14-21.55 10.49-7.41 2.13-13.65 4.91-20.29 8.73-2.58 1.39-2.58 1.39-4.58 1.39q0.25 1.79 0.5 3.62c0.02 2.92-0.15 4-2.14 6.18-2.73 2.04-5.44 3.77-8.53 5.21-2.59 1.4-3.36 3.48-4.83 5.99q-1.02 0.74-2.06 1.5c-2.44 1.88-2.91 3.64-3.94 6.5q-0.99 0.99-2 2c-0.53 2-0.53 2-0.87 4.25-0.9 4.31-2.13 7.41-5.13 10.75-2.64 0.15-2.64 0.15-5 0-1.85 6.5-3.49 13.04-5 19.63-1.36 5.92-2.92 11.65-5 17.37 2.48-0.99 2.48-0.99 5-2-0.66 6.27-1.32 12.54-2 19q1.97-0.49 4-1 0.4 1.31 0.8 2.67c0.53 1.74 0.53 1.74 1.08 3.52q0.51 1.71 1.05 3.48c0.91 2.84 1.92 5.58 3.07 8.33q0.68-0.74 1.38-1.5c1.62-1.5 1.62-1.5 3.62-1.5 0.49 1.05 0.49 1.05 0.99 2.12q0.65 1.36 1.32 2.75 0.64 1.36 1.3 2.75c1.31 2.64 1.31 2.64 4.39 4.38q0.49-0.98 1-2 0.99 0 2 0 1.83 2.22 3.63 4.46c1.84 2.06 3.93 3.28 6.37 4.54q0.49-1.48 1-3 0.9 0.61 1.83 1.24 1.19 0.81 2.42 1.63 1.18 0.8 2.39 1.62c2.08 1.33 4.14 2.46 6.36 3.51q0-0.98 0-2c1.07 0.31 1.07 0.31 2.16 0.62q1.43 0.4 2.9 0.82 1.4 0.4 2.85 0.81c8.84 2.15 17.75 1.99 26.78 2 1.17 0 1.17 0 2.38 0 22.41-0.03 43.39-3.13 63.67-13.1 3.83-1.82 6.18-2.54 10.26-1.15-1 3-1 3-2.65 4.04q-1.06 0.46-2.14 0.93-1.16 0.51-2.35 1.04-1.23 0.52-2.49 1.05-1.18 0.53-2.41 1.07c-4.59 1.99-9.11 3.62-13.96 4.87 2.41 2.81 2.89 2.99 6.84 3.5q2.33 0.07 4.66 0.06c1.21 0 1.21 0 2.44 0.01 7.26-0.2 13.79-2.3 19.06-7.57 5.54-0.53 10.43-0.76 15.5 1.69 3.89 3.59 7.3 6.83 7.74 12.25 0.22 10.97-1.65 18.1-9.24 26.06q-1.32 0.83-2.69 1.69c-3.71 3.71-3.71 8.24-4.31 13.31q-0.17 1.23-0.34 2.5-0.35 2.74-0.66 5.5c-3.63-0.66-7.26-1.32-11-2 0-5 0-5 2-8q-1.04 0.65-2.12 1.31-1.36 0.83-2.75 1.69-1.36 0.83-2.75 1.69c-2.38 1.31-2.38 1.31-4.38 1.31q0.32 1.08 0.66 2.2c2.35 8.17 2.35 8.17 2.28 12.3 0.03 1.24 0.03 1.24 0.06 2.5 1.92 1.77 1.92 1.77 4 3q0 0.98 0 2-2.91-0.72-5.81-1.44-1.61-0.4-3.27-0.81-2.99-0.77-5.92-1.75c-3.66-0.26-7.33-0.23-11-0.25q-1.48-0.03-3-0.06c-7.11-0.04-13.25 1.11-20 3.31 2.17-4.68 4.54-5.98 9.25-8.02 9.41-2.45 20.27-1.88 29.75 0.02-0.66-3.3-1.32-6.6-2-10q-1.05 0.4-2.13 0.8c-16.64 5.95-32.84 6.75-49.87 2.2-1.49-0.99-1.49-0.99-3-2q1.48-0.98 3-2-1.17-0.83-2.38-1.69c-2.71-2.39-3.58-3.91-4.62-7.31q1.11 0.46 2.25 0.94c2.26 0.87 4.4 1.54 6.75 2.06q-0.49-1.97-1-4 0.99 0 2 0 0 0.98 0 2 1.17 0.46 2.37 0.94c2.63 1.06 2.63 1.06 4.63 2.06q0-1.48 0-3 0.93-0.06 1.89-0.12c12.14-0.81 23.62-1.65 35.11-5.88q1.52-0.55 3.09-1.13c9.34-3.65 19.31-8.09 25.91-15.87q0.49 1.48 1 3 0.99 0 2 0c0.37-0.96 0.37-0.96 0.75-1.94 0.62-1.02 0.62-1.02 1.25-2.06q0.92-0.15 1.87-0.31c2.97-0.96 3.97-2.83 5.36-5.52 1.44-4.05 1.62-7.96 0.77-12.17-3.15-4.06-5.39-5.77-10.44-6.5-5.26 0.01-8.72 2.87-12.85 5.87-7.47 4.49-19.35 3.65-27.59 1.63q-0.91-0.28-1.86-0.56c-7.33-1.42-13.96 0.19-21.07 1.93q-5.59 1.35-11.19 2.63-1.27 0.29-2.59 0.6c-8.11 1.69-16.22 1.8-24.47 1.77q-1.09 0-2.22 0c-11.28-0.04-22-0.59-32.72-4.37q-1.03-0.36-2.08-0.73c-11.96-4.37-22.22-10.83-30.92-20.27q0-0.98 0-2-0.99 0-2 0c0.52-2.76 1.11-5.33 2-8q-0.99 0-2 0-0.42 1.3-0.85 2.64c-1.05 3.08-2.22 6.05-3.47 9.04-0.67 1.63-0.67 1.63-1.36 3.28q-0.71 1.71-1.45 3.48c-4.18 10.08-7.99 20.21-11.14 30.66q-0.43 1.34-0.88 2.72-0.36 1.17-0.72 2.38c-1.13 1.8-1.13 1.8-3.75 2.56q-1.17 0.12-2.38 0.24c0.55-6.22 1.99-11.49 4.19-17.31q0.5-1.36 1.02-2.76c4.18-11.18 8.66-22.26 13.13-33.34q0.45-1.11 0.91-2.25 0.85-2.11 1.71-4.23c1.08-2.68 2.12-5.36 3.04-8.11q-0.95-0.43-1.94-0.88c-2.06-1.12-2.06-1.12-3.06-3.12q-0.1-3.31-0.06-6.63 0.01-1.77 0.02-3.6 0.02-1.36 0.04-2.77-1.97-0.49-4-1c-0.18-5.15 0.42-9.52 1.68-14.51q0.26-1.03 0.52-2.08 0.55-2.17 1.11-4.34 0.85-3.29 1.67-6.6c2.95-11.66 2.95-11.66 5.02-16.47q-1.23-0.06-2.5-0.13c-6.02-1.5-10.12-5.09-13.88-9.93-2.98-5.41-3.96-9.7-3.93-15.88q-0.03-1.03-0.05-2.09c-0.01-4.78 1.07-7.83 3.36-11.97q-0.09-1.26-0.19-2.56c0.23-2.99 0.85-3.36 3.06-5.25 3.13-2.19 3.13-2.19 5.13-2.19q-0.49-1.97-1-4c3.42-3.15 6.44-3.56 11-4q0.49-2.46 1-5c11.31-0.59 20.07-0.85 29.16 6.82 1.75 1.66 3.38 3.26 4.84 5.18q0 0.99 0 2 1.53-0.79 3.11-1.61c8.81-4.51 17.46-8.68 27.07-11.23 7.34-2.01 12.55-4.65 18.48-9.45 2.22-1.62 3.66-2.29 6.34-2.71 0.99 2.97 0.99 2.97 2 6q1.26-0.74 2.56-1.5c3.82-1.67 6.32-1.9 10.44-1.5 0.99 0.99 0.99 0.99 2 2-0.38 3.12-0.38 3.12-1 6q0.88 0.07 1.79 0.15c4.4 0.41 8.18 0.9 12.21 2.85q0.09-1.05 0.19-2.13c1.64-5.82 5.31-8.79 10.37-11.68 4.29-2.3 7.83-3.33 12.69-3.25z"/>
	<path class="s4" d="m611 613c8.91 0 17.82 0 27 0-0.33 2.33-0.66 4.66-1 7.06-2.55 20.78-0.48 41.27 2 61.94q0.37-0.79 0.75-1.6c1.92-3.96 3.78-7.47 6.75-10.77q0.85-0.97 1.72-1.97c1.83-1.7 3.5-2.67 5.78-3.66-1.79 4.59-3.87 9.02-5.98 13.48-1.21 2.53-1.21 2.53-1.02 5.52q0.79-0.61 1.61-1.24c1.06-0.81 1.06-0.81 2.14-1.63 1.04-0.81 1.04-0.81 2.11-1.62 5.2-3.67 5.2-3.67 8.39-3.13 0.87 0.3 0.87 0.3 1.75 0.62-0.92 0.78-0.92 0.78-1.86 1.57q-1.21 1.05-2.45 2.12-1.2 1.02-2.43 2.07c-2.28 2.26-3.74 4.43-5.26 7.24q0.92 0.27 1.86 0.55 1.21 0.38 2.45 0.76 1.2 0.37 2.43 0.74c2.39 1 3.65 1.93 5.26 3.95 0 2.88-0.91 3.91-2.88 6-8.65 5.54-18.96 7.25-28.93 9.06q-1.04 0.19-2.11 0.39c-41.12 7.51-83.35 7.92-125.03 7.87q-6.03-0.01-12.06 0.02c-33.75 0.15-67.23-1.36-100.84-4.37q-1.34-0.12-2.72-0.24c-7.72-0.71-15.34-1.79-22.99-3.1q-1.83-0.3-3.71-0.6c-24.42-4.1-24.42-4.1-31.73-11.03-1-2.5-1-2.5 0-5 3.36-2.74 6.89-4.63 11-6-1.37-5.65-5.68-8.51-10-12 3-1 3-1 5.12-0.14 4.11 2.36 7.77 4.49 10.88 8.14-0.78-5.39-3.28-9.6-5.82-14.36-0.58-1.3-0.58-1.3-1.18-2.64q0.49-0.99 1-2c6.38 5.06 11.38 10.15 14 18q0.72-4 1.44-8 0.2-1.11 0.41-2.25 0.19-1.11 0.4-2.25 0.18-1 0.36-2.03c0.99-6.28 1.54-12.32 1.52-18.66q0-1.12 0.01-2.27 0-2.36-0.01-4.71-0.01-3.58 0.01-7.16 0-2.31-0.01-4.61 0.01-1.05 0.01-2.14c-0.02-4.47-0.5-8.42-1.14-12.92 8.91 0 17.82 0 27 0-0.48 2.46-0.96 4.92-1.46 7.46-2.06 11.67-2.1 23.35-2.23 35.16q-0.05 3.28-0.1 6.55-0.13 7.92-0.21 15.83 1.02-0.21 2.07-0.42 1.34-0.27 2.72-0.55c1.34-0.27 1.34-0.27 2.7-0.54 5.45-1.06 5.45-1.06 8.51-0.49 2.31 2.56 2.31 2.56 3.51 4.22 1.81 2.16 3.83 3.63 6.12 5.28 3.68 2.77 5.81 5.04 7.37 9.5q0 0.99 0 2 2.5 1.01 5 2 0.87 0.39 1.76 0.8c7.73 3.31 14.39 2.87 22.24 0.2 6.08-0.64 11.94 0.36 17.91 1.46 8.46 1.47 16.61 1.69 25.2 1.67q2.05 0 4.11 0.01 4.29 0 8.59-0.01 5.45-0.01 10.89 0 4.25 0.01 8.49 0 2.97 0 5.94 0.01c7.08-0.02 14.08-0.29 21.14-0.92 3.37-0.27 6.67-0.32 10.04-0.28q1.63 0.01 3.3 0.02 1.18 0.02 2.39 0.04c-0.99-2.97-1.98-5.94-3-9 4.44 2.22 6.78 4.56 9 9q0.79-1.04 1.61-2.12 1.05-1.36 2.14-2.75 1.04-1.36 2.11-2.75c2.01-2.23 3.38-3.3 6.14-4.38-1.06 3.4-2.01 6.01-4 9q0 1.48 0 3 1.24-0.94 2.51-1.91c3.56-2.38 7.18-2.97 11.37-3.53 8.21-1.34 13.71-3.45 19.18-9.81 9.11-13.1 13.63-29.97 11.94-45.75-1.56-4.63-3.54-8.54-7-12q0-4.5 0-9c-0.66-3.3-1.32-6.6-2-10z"/>
	<path class="s5" d="m579 620q2.68 0.43 5.44 0.88c1.51 0.24 1.51 0.24 3.06 0.49q1.23 0.31 2.5 0.63c1.44 2.88 0.29 4.79-0.52 7.76-0.74 3.46-0.61 6.71-0.48 10.24q0.9-0.83 1.83-1.68 1.19-1.08 2.42-2.2c1.18-1.07 1.18-1.07 2.39-2.17 4.55-3.75 7.45-4.18 13.36-3.95q0 0.49 0 1-1.69 0.43-3.44 0.88-1.75 0.55-3.56 1.12-0.49 0.99-1 2 0.9-0.07 1.83-0.14c6.52-0.3 6.52-0.3 9.79 1.89 1.38 2.25 1.38 2.25 1.13 4.5-0.37 0.87-0.37 0.87-0.75 1.75q-0.99 0-2 0 0 0.99 0 2 2.46 0 5 0c0.26 3.15 0.25 4.62-1.5 7.31q-0.74 0.83-1.5 1.69 1.48 0 3 0c-3.41 20.31-3.41 20.31-9 25q0.49-2.46 1-5-1.35 1.32-2.75 2.69c-15.07 12.7-38.64 12.45-57.25 11.31-13.36-1.21-26.52-3.73-37.96-11.05-2.48-1.15-4.34-1.12-7.04-0.95 0.29-5.51 2.73-9.09 5.59-13.61 1.55-2.43 1.55-2.43 2.41-5.58 1.24-3.48 3.19-5.48 5.76-8.1 1.63-1.9 1.63-1.9 1.24-5.71 2.19-2.14 2.19-2.14 5-4.25q1.39-1.05 2.81-2.14 1.08-0.79 2.19-1.61 0.49 0.99 1 2 0.79-0.43 1.6-0.87c12.37-5.65 28.67-5.13 41.34-0.63q3.06 1.18 6.06 2.5c-1.65-1.98-3.3-3.96-5-6q2.46 0 5 0c0.33-3.96 0.66-7.92 1-12z"/>
	<path class="s6" d="m418 483q0.99 0.99 2 2c-0.41 6.87-2.62 13.59-5 20q2.46-0.99 5-2c-0.66 6.27-1.32 12.54-2 19 1.98-0.5 1.98-0.5 4-1q0.4 1.31 0.8 2.67 0.53 1.73 1.07 3.52 0.52 1.71 1.06 3.48c0.91 2.84 1.92 5.58 3.07 8.33q0.68-0.74 1.38-1.5c1.62-1.5 1.62-1.5 3.62-1.5q0.49 1.04 0.99 2.12 0.65 1.36 1.32 2.75 0.64 1.36 1.3 2.75c1.31 2.64 1.31 2.64 4.39 4.38 0.5-0.99 0.5-0.99 1-2q0.99 0 2 0 1.83 2.22 3.63 4.46c1.84 2.06 3.93 3.28 6.37 4.54 0.5-1.49 0.5-1.49 1-3q0.9 0.61 1.83 1.24 1.19 0.81 2.42 1.64 1.18 0.79 2.39 1.61c2.08 1.33 4.14 2.46 6.36 3.51q0-0.98 0-2 1.06 0.31 2.16 0.62 1.43 0.4 2.9 0.82 1.4 0.4 2.85 0.81c8.84 2.15 17.75 1.99 26.78 2 1.17 0 1.17 0 2.38 0 22.41-0.03 43.39-3.13 63.67-13.1 3.83-1.82 6.18-2.54 10.26-1.15-1 3-1 3-2.65 4.04q-1.06 0.46-2.14 0.93-1.16 0.51-2.35 1.04-1.23 0.52-2.49 1.05c-1.19 0.53-1.19 0.53-2.41 1.07-4.59 1.99-9.11 3.62-13.96 4.87 2.41 2.81 2.89 2.99 6.84 3.5q2.33 0.07 4.66 0.06c1.21 0 1.21 0 2.44 0.01 7.26-0.2 13.79-2.3 19.06-7.57 5.54-0.53 10.43-0.76 15.5 1.69 3.89 3.59 7.3 6.83 7.74 12.25 0.22 10.97-1.65 18.1-9.24 26.06q-1.32 0.83-2.69 1.69c-3.71 3.71-3.71 8.24-4.31 13.31q-0.17 1.23-0.34 2.5-0.35 2.74-0.66 5.5c-3.63-0.66-7.26-1.32-11-2 0-5 0-5 2-8q-1.04 0.65-2.12 1.31-1.36 0.83-2.76 1.69-1.35 0.83-2.74 1.69c-2.38 1.31-2.38 1.31-4.38 1.31q0.32 1.08 0.66 2.2c2.35 8.17 2.35 8.17 2.28 12.3 0.03 1.24 0.03 1.24 0.06 2.5 1.92 1.77 1.92 1.77 4 3q0 0.98 0 2-2.91-0.72-5.81-1.44-1.61-0.4-3.27-0.81-2.99-0.77-5.92-1.75c-3.66-0.26-7.33-0.23-11-0.25q-1.48-0.03-3-0.06c-7.11-0.04-13.25 1.11-20 3.31 2.17-4.68 4.54-5.98 9.25-8.02 9.41-2.45 20.27-1.88 29.75 0.02-0.66-3.3-1.32-6.6-2-10q-1.05 0.4-2.13 0.8c-16.64 5.95-32.84 6.75-49.87 2.2-1.49-0.99-1.49-0.99-3-2q1.48-0.98 3-2-1.17-0.83-2.38-1.69c-2.71-2.39-3.58-3.91-4.62-7.31q1.11 0.46 2.25 0.94c2.26 0.87 4.4 1.54 6.75 2.06q-0.49-1.97-1-4 0.98 0 2 0 0 0.98 0 2c1.18 0.46 1.18 0.46 2.37 0.94 2.63 1.06 2.63 1.06 4.63 2.06q0-1.48 0-3 0.93-0.06 1.89-0.12c12.14-0.81 23.62-1.65 35.11-5.88q1.52-0.55 3.09-1.13c9.34-3.65 19.31-8.09 25.91-15.87q0.49 1.48 1 3 0.98 0 2 0c0.37-0.96 0.37-0.96 0.75-1.94q0.62-1.01 1.25-2.06 0.92-0.15 1.87-0.31c2.97-0.96 3.97-2.83 5.36-5.52 1.44-4.05 1.62-7.96 0.77-12.17-3.15-4.06-5.39-5.77-10.44-6.5-5.26 0.01-8.72 2.87-12.85 5.87-7.47 4.49-19.35 3.65-27.59 1.63q-0.91-0.28-1.86-0.56c-7.33-1.42-13.96 0.19-21.07 1.93q-5.59 1.35-11.19 2.63c-1.28 0.3-1.28 0.3-2.59 0.6-8.11 1.69-16.22 1.8-24.47 1.77q-1.09 0-2.22 0c-11.28-0.04-22-0.59-32.72-4.37q-1.03-0.36-2.08-0.73c-11.96-4.37-22.22-10.83-30.92-20.27q0-0.98 0-2-0.99 0-2 0c0.52-2.76 1.11-5.33 2-8q-0.99 0-2 0-0.42 1.3-0.85 2.64c-1.05 3.08-2.22 6.05-3.47 9.04q-0.67 1.62-1.36 3.28-0.71 1.71-1.45 3.48c-4.18 10.08-7.99 20.21-11.14 30.66-0.44 1.35-0.44 1.35-0.88 2.72q-0.36 1.17-0.72 2.38c-1.13 1.8-1.13 1.8-3.75 2.56q-1.17 0.12-2.38 0.24c0.55-6.22 1.99-11.49 4.19-17.31 0.5-1.37 0.5-1.37 1.02-2.76 4.18-11.18 8.66-22.26 13.13-33.34q0.45-1.11 0.91-2.25 0.85-2.11 1.71-4.23c1.08-2.68 2.12-5.36 3.04-8.11q-0.95-0.43-1.94-0.88c-2.06-1.12-2.06-1.12-3.06-3.12q-0.1-3.31-0.06-6.63 0.01-1.77 0.02-3.6 0.02-1.36 0.04-2.77-1.97-0.49-4-1c-0.31-6.11 0.82-11.47 2.31-17.38q0.32-1.36 0.65-2.76 0.32-1.3 0.65-2.63 0.29-1.18 0.59-2.39 0.39-0.91 0.8-1.84 1.48-0.49 3-1z"/>
	<path class="s7" d="m398 597q1.48 0.99 3 2c-0.99 0.5-0.99 0.5-2 1-7.55 21.55-7.15 46.76 1 68 2.36 4.88 5 9.49 8 14 2.78-4.42 4.15-6.74 4-12 1.13-1.75 1.13-1.75 3-3q2.99-0.54 6-1 0.49-0.98 1-2c6.36-0.45 10.71 0.31 16 4 2.06 1.91 3.4 3.65 5 6q0 1.48 0 3c-3.11-1.47-5.9-3.2-8.75-5.13q-1.19-0.8-2.42-1.63-0.9-0.61-1.83-1.24 0 1.48 0 3c-3.96-0.33-7.92-0.66-12-1q-0.49 2.46-1 5-0.51 0.99-1.04 2.01c-2.28 4.74-1.41 10.49 0.04 15.37 2.81 3.68 5.57 5.33 10 6.62 7.49 0.99 13.98-0.47 21-3q1.48-0.49 3-1 0 1.48 0 3c18 1.65 35.93 2.52 54 3q-0.49-0.99-1-2-0.1-2.81-0.06-5.62 0.01-1.5 0.02-3.04 0.02-1.15 0.04-2.34-0.99 0-2 0c0.5-3.19 1.33-6.2 2.38-9.25q0.35-1.02 0.71-2.08c0.91-1.67 0.91-1.67 3.91-2.67q3.12 1.48 6.13 3.19c5.42 2.89 10.69 4.82 16.68 6.19q1.02 0.23 2.06 0.46c21.45 4.56 48.44 4.93 68.13-5.84 2.81-1.85 5.45-3.81 8-6q0 1.48 0 3c4-10.85 4-10.85 7-22q-1.48 0-3 0c0.99-2.97 1.98-5.94 3-9q-2.46 0-5 0 0-0.99 0-2 0.98-0.49 2-1c-0.57-2.87-0.86-3.86-3-6-2.2-0.46-2.2-0.46-4.62-0.62q-1.22-0.12-2.48-0.23-0.94-0.07-1.9-0.15 0.98-1.97 2-4c3.89-0.2 6.98-0.33 10.69 0.88 4.73 4.35 6.98 9.31 7.73 15.69 0.33 15.44-4.29 32.56-14.29 44.68-6.76 6.78-13.85 7.99-23.09 9.18-4.06 0.76-6.67 2.22-10.04 4.57 0.52-5.28 2.25-8.57 5-13-5.01 3.73-7.96 7.57-11 13-2-1.95-3.82-3.95-5.56-6.12-2.12-2.88-2.12-2.88-4.44-3.88q0.74 1.39 1.5 2.81c1.5 3.19 1.5 3.19 1.5 6.19-17.99 1.72-35.88 2.32-53.94 2.26q-5.19-0.01-10.37 0.01c-34.6 0.09-34.6 0.09-44.69-3.27-4.18-0.34-7.95-0.36-11.94 1-7.3 2.39-13.95 1.29-20.86-1.8-4.1-2.24-6.57-4.71-8.39-9.01-1.91-3.37-3.44-4.59-6.5-6.88-10.12-7.78-17.44-19.55-19.31-32.31-0.14-2.64-0.23-5.24-0.25-7.87q-0.03-1.02-0.06-2.07c-0.04-5.04 1.25-8.41 3.31-13.06 0.42-3.38 0.42-3.38 0.44-6.87 0.29-6.01 1.12-11.59 2.5-17.44 0.25-1.11 0.25-1.11 0.51-2.23 1.29-5.2 1.29-5.2 3.55-7.46q0.99 0 2 0 0.49-0.49 1-1z"/>
	<path class="s8" d="m358 616c8.91 0 17.82 0 27 0-0.48 2.46-0.96 4.92-1.46 7.46-2.06 11.67-2.1 23.35-2.23 35.16q-0.05 3.28-0.1 6.55-0.13 7.92-0.21 15.83c1.03-0.21 1.03-0.21 2.07-0.42q1.34-0.27 2.72-0.54c1.34-0.27 1.34-0.27 2.7-0.55 5.61-1.1 5.61-1.1 8.51-0.49 2.01 2.14 3.54 4.46 5 7q-0.93 0.29-1.9 0.59-1.22 0.38-2.48 0.79-1.21 0.38-2.46 0.77c-2.32 0.75-2.32 0.75-4.16 2.85-0.58 2.91-0.58 2.91 0 6 15.21 14.71 49.86 14.64 69.66 15.78 2.5 0.23 4.89 0.69 7.34 1.22q-0.49 0.99-1 2-4.59 0.26-9.19 0.5c-1.26 0.07-1.26 0.07-2.56 0.14-14.23 0.75-28.3 0.1-42.5-0.83q-1.47-0.09-2.99-0.19c-13.1-0.88-26.09-2.06-39.07-4.06q-1.89-0.29-3.83-0.58c-6.55-1.07-13-2.41-19.44-3.97-0.99-0.24-0.99-0.24-2-0.48-5.47-1.38-11.34-3.45-15.42-7.53-0.56-2.25-0.56-2.25 0-5 3.31-2.77 6.92-4.64 11-6-1.37-5.65-5.68-8.51-10-12 3-1 3-1 5.12-0.14 4.11 2.36 7.77 4.49 10.88 8.14-0.78-5.39-3.28-9.6-5.82-14.36-0.58-1.3-0.58-1.3-1.18-2.64q0.49-0.99 1-2c6.38 5.06 11.38 10.15 14 18q0.72-4 1.44-8 0.2-1.11 0.41-2.25 0.19-1.11 0.4-2.25 0.18-1 0.36-2.03c0.99-6.28 1.54-12.32 1.52-18.66q0-1.12 0.01-2.27 0-2.36-0.01-4.71-0.01-3.58 0.01-7.16 0-2.31-0.01-4.61 0.01-1.05 0.01-2.14c-0.02-4.47-0.5-8.42-1.14-12.92z"/>
	<path class="s9" d="m454 433q0.99 0.49 2 1-0.72 0.91-1.47 1.84c-12.83 16.79-18.65 35.58-22.53 56.16 1.49-0.5 1.49-0.5 3-1-0.22 0.93-0.22 0.93-0.44 1.87-1.28 5.85-1.75 11.14-1.56 17.13q1.48-1.48 3-3c0.66 5.28 1.32 10.56 2 16q0.99 0 2 0 0-0.98 0-2 0.99 0 2 0 0.5 1.49 1.02 3.03 0.68 1.95 1.36 3.91 0.33 0.98 0.67 2c1.08 3.74 1.08 3.74 3.95 6.06 0.5-1.98 0.5-1.98 1-4q1.26 1.68 2.5 3.38 0.69 0.93 1.41 1.89c1.09 1.73 1.09 1.73 1.09 3.73q0.99 0 2 0c1.63 1.5 1.63 1.5 3 3q0-1.48 0-3c2.91 1.34 5.17 2.89 7.63 4.94 4.57 3.44 8.82 4.84 14.37 6.06q1.74 0.42 3.54 0.84c25.96 5.68 56.8 3.94 80.46-8.84q0.98 0 2 0-0.49-1.48-1-3-0.98-0.49-2-1 0-0.98 0-2c6.76 0.41 12.67 1.57 19 4q-0.61-1.12-1.24-2.27c-3.44-6.53-5.82-12.4-6.76-19.73 6.29 2.66 10.59 8.51 13.88 14.31 1.3 4.28 2 8.5 2.59 12.92 0.46 3.08 0.46 3.08 2.53 6.77 0.66-3.3 1.32-6.6 2-10 7.63 0.88 7.63 0.88 11 2-0.65 3.52-1.51 6.89-2.56 10.31-0.41 1.33-0.41 1.33-0.82 2.68-0.31 0.99-0.31 0.99-0.62 2.01-1.11-0.74-1.11-0.74-2.25-1.5-4.99-2.44-10.36-2.37-15.75-1.5-3.64 1.63-6.77 3.68-10 6-3.38 1.69-7.16 1.27-10.87 1.31q-1.22 0.05-2.48 0.09c-6.06 0.06-6.06 0.06-9.22-2.42q-0.7-0.97-1.43-1.98 1.68-0.61 3.41-1.24c4.78-1.79 9.43-3.85 14.09-5.95 1.23-0.55 1.23-0.55 2.49-1.11q3.01-1.35 6.01-2.7 0-0.98 0-2c-5.58 0.6-10.2 2.63-15.31 4.81-9.08 3.75-18.01 6.51-27.69 8.19-1.49 0.26-1.49 0.26-3.01 0.53-8.78 1.42-17.36 1.81-26.23 1.79q-3.39 0-6.77 0.04c-10.41 0.05-21.67-0.17-30.99-5.36q0 0.98 0 2c-5.26-1.41-8.72-3.75-13-7q-0.49 0.98-1 2c-4.43-1.39-6.96-3.52-10-7q0-0.98 0-2-0.99 0-2 0-0.49 1.48-1 3c-3.27-3.1-5.98-5.95-8-10q0-1.48 0-3-0.99 0-2 0-0.49 1.48-1 3-0.99 0-2 0c-3.87-5.8-5.06-11.13-6-18-1.98 0.5-1.98 0.5-4 1-0.1-6.11-0.07-11.97 1-18-1.98 0.5-1.98 0.5-4 1q0.99-4.5 2-9 0.21-0.94 0.42-1.92c4.82-21.78 4.82-21.78 7.58-26.08 2.52-0.66 2.52-0.66 5-1 3.01-3.56 3.64-7.44 4.38-11.91 0.73-2.45 1.77-3.38 3.62-5.09q0.43-1.2 0.88-2.44c1.41-3.22 3.37-4.43 6.12-6.56q0.43-0.99 0.88-2c1.87-3.33 4.72-4.36 8.12-6z"/>
	<path class="s10" d="m422 404c11.22-0.59 19.96-0.86 29.02 6.68 1.79 1.69 3.39 3.44 4.98 5.32q1.23 1.45 2.5 2.94c1.68 3.43 2.06 5.38 1.38 9.1-2.01 4.48-6.75 6.96-11.05 8.97-2.59 1.4-3.36 3.48-4.83 5.99q-1.02 0.74-2.06 1.5c-2.44 1.88-2.91 3.64-3.94 6.5q-0.99 0.99-2 2c-0.53 2-0.53 2-0.87 4.25-0.9 4.31-2.13 7.41-5.13 10.75-2.64 0.15-2.64 0.15-5 0-0.29 1.09-0.29 1.09-0.59 2.2-1.34 4.98-2.7 9.93-4.41 14.8q-2 0-4 0c0.39-6.56 1.42-11.95 4-18q-1.23-0.06-2.5-0.13c-6.02-1.5-10.12-5.09-13.88-9.93-2.98-5.41-3.96-9.7-3.93-15.88q-0.03-1.03-0.05-2.09c-0.01-4.78 1.07-7.83 3.36-11.97q-0.09-1.26-0.19-2.56c0.23-2.99 0.85-3.36 3.07-5.25 3.12-2.19 3.12-2.19 5.12-2.19q-0.49-1.97-1-4c3.42-3.15 6.44-3.56 11-4q0.49-2.46 1-5z"/>
	<path class="s3" d="m512.14 469.65c4.53 2.3 6.99 5.76 8.86 10.35 0.56 2.94 0.62 5.76 0.56 8.75-0.01 1.19-0.01 1.19-0.03 2.4-0.24 6.83-1.91 12.03-5.53 17.85q-0.7 1.21-1.42 2.45c-4.24 6.89-9.42 12.51-17.27 15.08-5.95 1.21-11.89 1.23-17.68-0.59-3.43-2.53-6.24-5.42-8.63-8.94q0-0.98 0-2-0.98 0-2 0c-1.6-6.39-2.09-11.63 1.06-17.5 3.27-5.02 7.25-9.37 11.32-13.75q0.93-1.01 1.89-2.04c8.2-8.61 16.28-15.88 28.87-12.06z"/>
	<path class="s11" d="m345 370q0.11 0.95 0.22 1.92c1.83 15.03 4.64 29.51 8.47 44.14q0.3 1.17 0.62 2.37 0.87 3.34 1.76 6.67c0.27 1 0.27 1 0.55 2.03 0.65 2.39 1.27 4.64 2.38 6.87q0.34-0.97 0.69-1.97 1.55-4.43 3.12-8.84 0.53-1.53 1.08-3.11 0.53-1.46 1.07-2.97 0.47-1.36 0.97-2.75c1.07-2.36 2.12-3.68 4.07-5.36-0.73 5.19-2.07 10.1-3.5 15.13q-0.67 2.37-1.34 4.75-0.3 1.04-0.6 2.11c-1.9 6.84-3.15 14.3 0 20.95 1.44 3.06 1.44 3.06 1.38 5.37-1.5 2.69-4.01 3.38-6.84 4.32-6.7 1.62-13.23 1.56-20.1 1.37q-0.01-0.88-0.03-1.79c-0.53-26.99-5.26-56.01-18.72-79.8-1.25-2.41-1.25-2.41-1.25-5.41 8.58-3.4 16.68-6.24 26-6z"/>
	<path class="s12" d="m654 366c5.45 0.45 10.59 1.59 15.88 3 0.99 0.27 0.99 0.27 2.01 0.54 4.83 1.32 4.83 1.32 7.11 2.46-0.32 4.01-1.41 7-3.25 10.5-6.87 13.33-10.27 28-13.75 42.5q-0.27 1.14-0.56 2.31c-2.49 10.65-2.78 20.83-2.44 31.69-9.7 0.65-17.83-1.19-27-4-1.06-2.71-1.09-3.77 0-6.52q1.43-2.72 2.87-5.43c2.66-7.19 0.68-13.93-1.25-21.05q-0.33-1.27-0.67-2.58-0.65-2.51-1.32-5.01-1.35-5.2-2.63-10.41 0.99 0 2 0 1.44 3.53 2.87 7.06c0.41 0.99 0.41 0.99 0.82 1.99 1.32 3.27 2.51 6.49 3.44 9.88 0.56 2.92 0.56 2.92 1.87 4.07q2.02-6.49 4-13 0.48-1.54 0.98-3.14c2.3-7.62 4.06-15.32 5.71-23.11q0.32-1.5 0.65-3.05c1.28-6.22 2.17-12.37 2.66-18.7z"/>
	<path class="s13" d="m631 459q2.36 0.33 4.69 0.81c6.74 1.31 13.51 2.26 20.31 3.19 0.94 2.52 1.13 3.65 0.14 6.2q-0.65 1.22-1.33 2.49c-3.26 6.82-4.86 13.72-6.36 21.09q-0.44 2.15-0.91 4.29c-2.57 11.59-2.78 22.86-2.52 34.71q0.04 1.74 0.07 3.53 0.04 1.57 0.09 3.18c-0.18 2.51-0.18 2.51-2.18 4.51-8.18 0.12-17.57-0.29-25-4 0.38-4.31 1.26-7.81 2.88-11.83 2.55-6.88 3.71-13.88 4.87-21.11q0.33-1.94 0.67-3.94c1.19-7.02 1.19-7.02 1.58-14.12-1.32 4.62-2.64 9.24-4 14-4.92 0.98-5.81 1.03-10-1 0.6-3.66 1.63-6.61 3.25-9.94 3.06-6.53 5.41-13.24 7.75-20.06q2.46 0 5 0-0.02-1.17-0.04-2.37-0.01-1.51-0.02-3.07-0.02-1.5-0.04-3.06c0.1-2.5 0.1-2.5 1.1-3.5z"/>
	<path class="s14" d="m368 464c-0.03 0.96-0.03 0.96-0.06 1.93-0.44 15.6 0.07 30.88 4.06 46.07q0.49 0.49 1 1 0.5-1.38 1.02-2.81c0.67-1.79 0.67-1.79 1.36-3.63q0.65-1.78 1.33-3.62c1.29-2.94 1.29-2.94 3.29-3.94-0.38 4.24-0.81 7.84-2.5 11.75-2.94 7.47-3.42 14.68-0.5 22.19 0.59 1.28 0.59 1.28 1.19 2.59 0.95 2.9 0.64 4.57-0.19 7.47-8.39 2.54-16.22 3.71-25 3-1-1-1-1-1.03-3.21q0.05-1.46 0.11-2.96c0.35-13.28-0.12-25.81-2.33-38.89q-0.31-1.84-0.62-3.72c-1.58-8.71-3.86-16.84-7.94-24.72-1.19-2.5-1.19-2.5-0.19-5.5q0.84-0.13 1.7-0.26 3.8-0.59 7.61-1.18 1.32-0.2 2.67-0.41 1.27-0.19 2.57-0.4c1.17-0.18 1.17-0.18 2.37-0.36 6.61-1.23 6.61-1.23 10.08-0.39z"/>
	<path class="s15" d="m617 543q9.04 1 18.06 2.06 1.15 0.14 2.34 0.28 2.8 0.33 5.6 0.66c-0.56 4.36-1.35 8.51-2.5 12.75-2.07 8.65-2.23 17.4-2.5 26.25q0.6-0.99 1.21-2.02c6.34-10.27 13.71-19.06 22.17-27.61q0.9-0.92 1.84-1.86 0.85-0.86 1.74-1.74 0.77-0.76 1.56-1.55c1.48-1.22 1.48-1.22 4.48-2.22-1.6 3.87-4.12 6.43-7 9.44-18.53 19.67-18.53 19.67-26.06 44.19q0 1.05 0.01 2.14 0.02 2.61 0.05 5.23-5.37 0.08-10.75 0.13-1.52 0.02-3.08 0.05-1.46 0.01-2.97 0.02-1.34 0.01-2.73 0.03c-2.61-0.24-4.23-0.91-6.47-2.23 0.74-8.55 2.48-16.85 4.54-25.18 0.61-3.73 0.58-7.41 0.56-11.18 0-1.19 0-1.19-0.01-2.4q-0.01-3.78-0.03-7.55-0.01-2.57-0.01-5.14-0.02-6.27-0.05-12.55z"/>
	<path class="s16" d="m380 547c-0.24 1.6-0.24 1.6-0.48 3.22-2.12 17.12-1.23 34.98 3.57 51.55 0.83 2.95 1.09 5.2 0.91 8.23-3.52 1.59-6.23 2.24-10.08 2.2q-1.39-0.01-2.82-0.02c-1.44-0.03-1.44-0.03-2.91-0.05q-1.46-0.02-2.97-0.03-3.61-0.04-7.22-0.1 0.1-1.3 0.21-2.64c0.84-18.54-11.6-32-23.21-45.36q-1.94-1.96-3.94-3.87c-2.59-2.5-4.09-4.58-5.06-8.13 4.43 2.37 7.69 5.34 11.19 8.88q0.84 0.84 1.71 1.72c7.5 7.68 13.9 15.99 19.1 25.4 0.34-7.91 0-15.34-1.38-23.12-0.18-1.09-0.18-1.09-0.38-2.19-0.53-2.84-1.07-5.36-2.4-7.93-1.09-2.3-0.53-3.38 0.16-5.76q4.53-0.51 9.06-1 1.27-0.14 2.57-0.29c4.82-0.52 9.52-0.82 14.37-0.71z"/>
	<path class="s17" d="m358 616c8.91 0 17.82 0 27 0-0.47 2.45-0.94 4.9-1.43 7.43-2.07 11.83-2.37 23.72-2.76 35.7q-0.12 3.34-0.25 6.69-0.3 8.09-0.56 16.18c-4.56 0.93-8.34 1.37-13 1-2.38-1.94-2.38-1.94-4-4q-0.99-0.49-2-1 0 2.96 0 6-1.97 0-4 0c-0.25-5.86 0.15-11.44 1-17.25 1.1-8.19 1.27-16.27 1.21-24.53q-0.03-3.47-0.02-6.94-0.01-2.25-0.02-4.5c0-1.02 0-1.02-0.01-2.06-0.04-4.4-0.53-8.3-1.16-12.72z"/>
	<path class="s18" d="m611 613c8.91 0 17.82 0 27 0-0.33 2.33-0.66 4.66-1 7.06-1.91 15.34-1.47 30.72 0.28 46.04 0.76 6.68 0.89 13.18 0.72 19.9q-5.69-0.71-11.38-1.44c-1.62-0.2-1.62-0.2-3.27-0.41-1.55-0.19-1.55-0.19-3.12-0.4q-1.43-0.18-2.89-0.36c-2.34-0.39-2.34-0.39-4.34-1.39q0.27-0.8 0.55-1.62 2.93-8.63 5.45-17.38 0.28-0.91 0.56-1.85c1.8-8.86 1.24-17.43-3.27-25.29-1.29-1.98-1.29-1.98-3.29-3.86q0-4.5 0-9c-0.66-3.3-1.32-6.6-2-10z"/>
	<path class="s19" d="m404 686c4.86 2.98 7.94 6.66 10 12q0 0.99 0 2 2.5 1.01 5 2 0.87 0.39 1.76 0.8c7.73 3.31 14.39 2.87 22.24 0.2 6.08-0.64 11.94 0.36 17.91 1.46 8.46 1.47 16.61 1.69 25.2 1.67q2.05 0 4.11 0.01 4.29 0 8.59-0.01 5.45-0.01 10.89 0 4.25 0.01 8.49 0 2.97 0 5.94 0.01c7.08-0.02 14.08-0.29 21.14-0.92 3.37-0.27 6.67-0.32 10.04-0.28q1.63 0.01 3.3 0.02c1.18 0.02 1.18 0.02 2.39 0.04 0.33 2.31 0.66 4.62 1 7-11 1.62-21.73 2.3-32.84 2.27q-2.38 0-4.75 0-4.95 0.01-9.9-0.01-6.19-0.01-12.38 0.01c-55.61 0.13-55.61 0.13-79.88-5.14q-1.84-0.37-3.74-0.74c-22.74-4.66-22.74-4.66-28.51-11.39-0.69-3.06-0.69-3.06 0-6 4.17-4.17 8.13-5.79 14-5z"/>
	<path class="s20" d="m570.85 462.36c7.08 2.1 12.33 8.61 17.46 13.64q0.91 0.89 1.85 1.8c4.68 4.69 8.27 9.15 8.28 16.07-0.22 6.42-2.37 10.89-6.69 15.57-3.58 2.03-6.65 3.23-10.75 2.56-3.17-1.85-5.5-4.33-8-7q-1.15-1.17-2.33-2.38c-8.75-9.26-13.06-17.13-12.96-29.96 0.41-3.74 1.8-5.89 4.29-8.66 3.35-2.23 4.94-2.29 8.85-1.64z"/>
	<path class="s21" d="m430 408c8.68 0.4 14.86 2.35 20.81 8.88 2.61 3.18 4.52 6.35 6.19 10.12q0.99 1.48 2 3c-1.65 1.32-3.3 2.64-5 4-2.07-1.79-2.98-2.95-3.94-5.56-0.82-2.5-0.82-2.5-2.7-3.52-3.02-1.18-5.91-1.6-9.11-2.05q-1.75-0.25-3.55-0.5c-1.33-0.18-1.33-0.18-2.7-0.37q-0.49 1.48-1 3c-1.39 0.43-1.39 0.43-2.81 0.87-3.87 1.37-4.96 2.74-7.19 6.13q-0.86 1.26-1.75 2.56c-2.38 6.55-1.78 13.72-0.25 20.44-5.71-2.13-9.88-4.43-13.12-9.88-1.51-3.64-1.34-7.25-0.88-11.12 1.31-2.56 1.31-2.56 3-5q0.68-2.02 1.31-4.06c1.5-4.26 3.85-5.61 7.69-7.94 0.72-2.05 0.72-2.05 1-4q2.16-0.51 4.31-1c1.2-0.28 1.2-0.28 2.43-0.56 2.26-0.44 2.26-0.44 5.26-0.44q0-1.48 0-3z"/>
	<path class="s22" d="m576 520c6.29 2.66 10.59 8.51 13.88 14.31 1.3 4.28 2 8.5 2.59 12.92 0.46 3.08 0.46 3.08 2.53 6.77 0.66-3.3 1.32-6.6 2-10 7.63 0.88 7.63 0.88 11 2-0.65 3.52-1.51 6.89-2.56 10.31q-0.4 1.32-0.82 2.68-0.3 0.99-0.62 2.01-1.11-0.74-2.25-1.5c-4.99-2.44-10.36-2.37-15.75-1.5-3.64 1.63-6.77 3.68-10 6-3.38 1.69-7.16 1.27-10.88 1.31q-1.21 0.05-2.47 0.09c-6.06 0.06-6.06 0.06-9.22-2.42q-0.7-0.97-1.43-1.98 1.68-0.61 3.41-1.24c4.78-1.79 9.43-3.85 14.09-5.95q1.23-0.55 2.49-1.11 3.01-1.35 6.01-2.7 0-0.99 0-2-0.78-0.36-1.57-0.73c-4.22-2.03-7.98-4.04-11.43-7.27q0-0.99 0-2c6.76 0.41 12.67 1.57 19 4q-0.61-1.12-1.24-2.27c-3.44-6.53-5.82-12.4-6.76-19.73z"/>
	<path class="s23" d="m458.63 688.19q1.4 0.23 2.85 0.46c6.49 1.07 6.49 1.07 9.57 1.9 3.43 0.79 6.95 0.6 10.45 0.57 1.19 0 1.19 0 2.41 0 6.41-0.05 12.72-0.47 19.09-1.12 0.5 5.94 0.5 5.94 1 12-43.36 0.55-43.36 0.55-54-3q0-1.48 0-3-0.78 0.41-1.57 0.84-1.05 0.54-2.12 1.1-1.02 0.53-2.07 1.09c-6.21 2.7-14.14 3.2-20.63 1.25-4.25-1.95-6.65-3.87-8.61-8.28q0.99 0 2 0 0.49-1.48 1-3c1.14 0.96 1.14 0.96 2.31 1.94 4.24 3.25 7.45 3.4 12.69 3.06 4.46-1.05 8.06-2.22 11.61-5.18 4.93-2.65 8.66-1.62 14.02-0.63z"/>
	<path class="s24" d="m368 464q0 1.97 0 4-2.62 1.22-5.25 2.44-1.45 0.67-2.95 1.37c-2.31 0.98-4.38 1.63-6.8 2.19q0.21 1.29 0.43 2.62c2.44 15.04 4.82 30.01 6.17 45.19 0.52 5.77 1.42 11.48 2.4 17.19 5.93 0.97 11.06 0.89 17 0-0.5 1.98-0.5 1.98-1 4-8.39 2.54-16.22 3.71-25 3-1-1-1-1-1.03-3.21q0.05-1.46 0.11-2.96c0.35-13.28-0.12-25.81-2.33-38.89q-0.31-1.84-0.62-3.72c-1.58-8.71-3.86-16.84-7.94-24.72-1.19-2.5-1.19-2.5-0.19-5.5q0.84-0.13 1.7-0.26 3.8-0.59 7.61-1.18 1.32-0.2 2.67-0.41 1.27-0.19 2.57-0.4c1.17-0.18 1.17-0.18 2.37-0.36 6.61-1.23 6.61-1.23 10.08-0.39z"/>
	<path class="s25" d="m379 547q0 1.48 0 3-1.13 0.49-2.3 0.99-1.48 0.65-3.01 1.32-1.47 0.64-2.99 1.3c-2.5 1.29-4.07 2.12-5.7 4.39-1.24 7.08 0.36 14.91 1.22 22 0.79 6.55 1.13 13.06 1.34 19.64 0.65 4.94 2.8 8.06 6.44 11.36-3.46 1.07-6.64 1.1-10.25 1.06q-1.61-0.01-3.27-0.02c-1.23-0.02-1.23-0.02-2.48-0.04q0.1-1.3 0.21-2.64c0.84-18.54-11.6-32-23.21-45.36q-1.94-1.96-3.94-3.88c-2.59-2.49-4.09-4.57-5.06-8.12 4.43 2.37 7.69 5.34 11.19 8.87q0.84 0.85 1.71 1.73c7.5 7.68 13.9 15.99 19.1 25.4 0.34-7.91 0-15.34-1.38-23.13-0.18-1.08-0.18-1.08-0.38-2.18-0.53-2.84-1.07-5.36-2.4-7.93-1.09-2.3-0.53-3.38 0.16-5.76q4.56-0.51 9.12-1c1.29-0.14 1.29-0.14 2.6-0.29 4.45-0.48 8.79-0.83 13.28-0.71z"/>
	<path class="s26" d="m593 457q1.48 0 3 0c4.51 10.73 4.51 10.73 6.56 16q0.39 0.99 0.79 2.01 0.76 1.95 1.51 3.91c1.02 2.62 1.97 4.87 3.75 7.06 2.03 2.95 2.15 5.75 2.58 9.27q0.23 1.89 0.48 3.83 0.16 1.44 0.33 2.92c4.95 1.98 4.95 1.98 10 4-1 5-1 5-2.75 8.31-2.13 4.09-3.55 8.31-4.94 12.69q-0.32 0.99-0.65 2.01c-1.07 3.49-1.81 6.79-2.18 10.43-0.24 1.76-0.24 1.76-0.48 3.56-2.82 1.41-4.17 0.51-7.12-0.44-1.37-0.43-1.37-0.43-2.76-0.87q-1.05-0.34-2.12-0.69 0.25-1.17 0.5-2.37c0.56-2.51 0.56-2.51 0.5-4.63-2.31 2.64-4.62 5.28-7 8q-1.48-0.49-3-1c0.5-4.34 3.28-6.75 6-10 0.53-1.36 0.53-1.36 1.06-2.75 0.94-2.25 0.94-2.25 2.94-3.19 2.27-0.94 2.27-0.94 3.19-3.68 0.91-3.81 1.41-7.49 1.81-11.38q1.48 0 3 0-0.47-2.88-0.94-5.75-0.26-1.59-0.52-3.23c-0.43-2.38-0.91-4.69-1.54-7.02q0.99 0 2 0-0.74-1.3-1.5-2.65c-3.99-7.17-7.54-14.41-10.56-22.04q-0.47-1.14-0.94-2.32c-1.46-3.78-2.26-6.12-1-9.99z"/>
	<path class="s27" d="m631 459q0.94 0.18 1.91 0.37c7.67 1.43 15.36 2.57 23.09 3.63 0.94 2.52 1.13 3.65 0.14 6.2q-0.65 1.22-1.33 2.49c-3.26 6.82-4.86 13.72-6.36 21.09q-0.44 2.15-0.91 4.29c-2.57 11.59-2.78 22.86-2.52 34.71q0.04 1.74 0.07 3.53 0.04 1.57 0.09 3.18c-0.18 2.51-0.18 2.51-2.18 4.51-2.52 0.04-4.88-0.05-7.37-0.25q-1.01-0.06-2.04-0.12c-3.62-0.26-6.49-0.69-9.59-2.63q0-1.48 0-3c1.05-0.16 1.05-0.16 2.12-0.33q1.36-0.24 2.76-0.48 1.35-0.23 2.74-0.46c2.72-0.56 2.72-0.56 4.38-3.73 0.45-1.94 0.45-1.94 0.64-4.08q0.13-1.22 0.27-2.48 0.14-1.32 0.27-2.68 0.15-1.37 0.31-2.79 0.48-4.42 0.95-8.85c2.43-23.02 2.43-23.02 4.99-32.57 0.59-2.63 0.78-4.87 0.57-7.55-1.51-1.61-1.51-1.61-3.62-2.69q-1.09-0.61-2.2-1.24c-2.66-1.31-5.32-2.28-8.18-3.07q0.49-2.46 1-5z"/>
	<path class="s28" d="m619 544c5.4-0.11 10.58 0.32 15.94 1 1.17 0.14 1.17 0.14 2.36 0.29q2.85 0.35 5.7 0.71c-0.56 4.36-1.35 8.51-2.5 12.75-2.07 8.65-2.23 17.4-2.5 26.25q0.6-0.99 1.21-2.02c6.34-10.27 13.71-19.06 22.16-27.61q0.91-0.92 1.85-1.86 0.85-0.86 1.74-1.74 0.77-0.76 1.56-1.55c1.48-1.22 1.48-1.22 4.48-2.22-1.6 3.87-4.12 6.43-7 9.44-18.54 19.66-18.54 19.66-26.06 44.19 0.02 2.43 0.04 4.86 0.06 7.37-5.28 0-10.56 0-16 0q0.49-1.97 1-4 0.95-0.4 1.94-0.81c2.39-1.08 2.39-1.08 3.12-4.21 1.11-4.26 1.64-8.54 2.06-12.92q0.13-1.26 0.26-2.56c0.98-10.82 0.79-21.65 0.62-32.5-3.96-1.65-7.92-3.3-12-5q0-1.48 0-3z"/>
	<path class="s29" d="m673 371q3.01 0.43 6 1c-0.32 4.01-1.41 7-3.25 10.5-6.87 13.33-10.27 28-13.75 42.5q-0.27 1.14-0.56 2.31c-2.49 10.65-2.78 20.83-2.44 31.69-3.96 0-7.92 0-12 0q0.42-1.88 0.85-3.81 1.47-6.64 2.9-13.29 1.3-6.04 2.63-12.06 0.58-2.63 1.14-5.27c9.71-44.8 9.71-44.8 18.48-53.57z"/>
	<path class="s30" d="m325 375c2.92 3.41 4.37 7.14 5.88 11.31q0.34 0.93 0.69 1.88 1.25 3.39 2.43 6.81 0.58 1.65 1.18 3.36c3.04 8.82 5.4 17.64 7.38 26.77q0.45 2.02 0.9 4.04 3.59 16.35 6.54 32.83c-2.41 1.2-3.95 1.1-6.63 1.06q-1.21-0.01-2.47-0.02-0.94-0.02-1.9-0.04-0.01-0.88-0.03-1.79c-0.38-19.37-3.5-36.62-8.85-55.21q-0.47-1.66-0.95-3.36c-2.04-6.82-4.63-12.87-8.1-19.08-1.07-2.56-1.07-2.56-0.87-4.82 1.09-2.36 2.43-2.82 4.8-3.74z"/>
	<path class="s31" d="m508 485c3.11 1.75 4.57 2.83 5.81 6.19q0.09 1.38 0.19 2.81 0.11 1.02 0.22 2.07c0.35 5.21-0.39 8.44-3.74 12.49-3.34 3.24-6.44 4.29-10.98 4.94-4.7-0.67-6.2-2.13-9.5-5.5-1.64-4.93-1.59-9.26 0.06-14.13 4.62-6.84 9.39-10.74 17.94-8.87z"/>
	<path class="s32" d="m579 620q2.68 0.43 5.44 0.88 1.5 0.24 3.06 0.49 1.23 0.31 2.5 0.63c1.44 2.88 0.29 4.79-0.52 7.76-0.74 3.46-0.61 6.71-0.48 10.24q0.9-0.83 1.83-1.68c1.2-1.09 1.2-1.09 2.42-2.2q1.18-1.07 2.39-2.17c4.55-3.75 7.45-4.18 13.36-3.95q0 0.49 0 1c-2.31 0.66-4.62 1.32-7 2q0 1.48 0 3c-1.75 1.61-1.75 1.61-4 3.19q-1.11 0.79-2.25 1.6-0.86 0.6-1.75 1.21c0.45 3.06 1.12 5.23 2.56 8 1.45 3.02 1.73 4.71 1.44 8-3.85-1.3-5.99-2.73-8.69-5.75-11.86-12.22-27.92-15.82-44.31-17.25 2.79-2.79 5.44-2.42 9.19-2.44q1.05 0 2.13-0.01c7.76 0.17 14.54 2.58 21.68 5.45-1.65-1.98-3.3-3.96-5-6q2.46 0 5 0c0.33-3.96 0.66-7.92 1-12z"/>
	<path class="s26" d="m580 472c3.68 1.42 5.82 3.77 8.48 6.56 1.59 1.62 1.59 1.62 4.21 2.94 3.24 2.11 4.05 3.84 5.31 7.5 0.94 6.84 0 12.32-4 18-3.12 3.38-6.21 4.96-10.87 5.37-4.36-0.75-7.36-4.11-10.13-7.37-1.23-2.24-1.23-2.24-2-4 2-1 2-1 4.94-1.37 3.19-0.66 4.14-1.1 6.06-3.63 1.59-3.18 1.34-5.46 1-9-1.2-2.41-2.53-4.64-4-6.89-1-2.11-1-2.11-0.71-4.25 0.71-1.86 0.71-1.86 1.71-3.86z"/>
	<path class="s33" d="m715.5 533.75q1.06-0.01 2.14-0.03c5.11 0.03 5.11 0.03 7.36 2.28-6.72 5.87-13.79 9.57-22 13q-1.21 0.54-2.45 1.11c-6.02 2.11-12.19 2.02-18.49 1.95q-1.16 0-2.36-0.01-2.85-0.02-5.7-0.05c0-4 0-4 1.73-5.75 12.22-8.4 25.06-12.35 39.77-12.5z"/>
	<path class="s34" d="m272 538c17.37-0.67 32.08 1.01 47 11q2.57 2.43 5 5c-11.9 4.45-23.68 2.11-35-3-13.53-6.67-13.53-6.67-17-11q0-0.99 0-2z"/>
	<path class="s35" d="m702 500c1.73 4.1 0.13 7.52-1.38 11.44q-0.4 1.05-0.81 2.13c-4.89 12.19-13.25 23.86-24.81 30.43q-1.48 0-3 0c-1.29-9.24 3.79-17.2 8.78-24.66 1.66-2.2 3.38-4.28 5.22-6.34q0.83-0.93 1.68-1.89c4.26-4.51 9.06-7.85 14.32-11.11z"/>
	<path class="s36" d="m293 505c9.1 1.78 18.17 11.4 23.19 18.74 4.89 7.81 9.18 14.86 8.81 24.26-4.81-0.43-7.49-2.73-10.88-5.94q-0.78-0.73-1.59-1.49c-10.27-9.89-16.31-21.79-19.53-35.57z"/>
	<path class="s37" d="m565 505q0.99 0.99 2 2c-0.08 4.46-0.54 6.47-3.5 9.88q-1.23 1.04-2.5 2.12c-1.28 1.06-1.28 1.06-1.13 3.5-0.15 2.44-0.15 2.44 1.13 3.5 4.66 0.42 7.18-0.31 11-3-0.26 3.18-0.61 4.63-2.94 6.87-3.3 1.22-4.66 1.06-8.06 0.57-4.15-0.63-4.15-0.63-7.88 1.37q-1.04 1.08-2.12 2.19c-4.49 2.71-8.9 2.76-14 2-3-1.26-5.68-2.7-8-5q0-1.48 0-3c4.75 1.87 4.75 1.87 7 3 7.66 0.77 7.66 0.77 14.63-1.94 1.72-1.49 1.72-1.49 3.37-3.06q0.06-2.5 0-5-1.04-0.4-2.12-0.8-1.36-0.53-2.76-1.08-1.35-0.51-2.74-1.05c-2.38-1.07-2.38-1.07-4.38-3.07-0.13-2.63-0.13-2.63 0-5 7.28-4.11 14.7-5.58 23-5z"/>
	<path class="s38" d="m561 395q0 1.48 0 3 1.48-0.37 3-0.75c4.82-0.65 8.13 0.96 12 3.75 4.9 4.61 9.75 9.86 10.17 16.82q0.02 4.09-0.17 8.18-2.46 0.49-5 1-0.24-0.97-0.48-1.98c-1.78-6.65-3.48-11.19-9.31-15.27-4.84-2.77-9.68-3.9-15.21-2.75-2.23 1.98-2.23 1.98-4 4-2.74-0.2-4.55-0.78-7-2 1.23-6.31 5.09-9.29 10-13 2-1 2-1 6-1z"/>
	<path class="s39" d="m377 356c2 1 2 1 2.61 2.8 2.45 13.82 0.93 29.95-6.23 42.14q-1.17 1.51-2.38 3.06-0.99 0-2 0c-5.08-13.67-3.39-25.32 2.57-38.45 3.98-8.1 3.98-8.1 5.43-9.55z"/>
	<path class="s40" d="m623 351c3 1 3 1 4.28 3.15q1.93 4.4 3.72 8.85 0.49 1.19 0.99 2.43c3.58 10.1 3.55 21.82-0.99 31.57-1.49 0.5-1.49 0.5-3 1q-1.19-2.81-2.38-5.63-0.65-1.55-1.33-3.16c-0.64-1.59-0.64-1.59-1.29-3.21q-0.57-1.32-1.15-2.68c-1.26-4.94-1.14-9.75-1.1-14.82q-0.01-1.52-0.02-3.09c0.01-5.19 0.18-9.56 2.27-14.41z"/>
	<path class="s41" d="m408 380c-3.55 12.16-13.16 21.84-24 28-3.82 1.86-6.76 2.2-11 2 3.64-12.36 12.45-20.16 23.38-26.34 3.87-2 7.22-3.66 11.62-3.66z"/>
	<path class="s42" d="m593 372c11.5 3.02 22.35 10.65 28.76 20.78 4.24 7.51 4.24 7.51 4.24 11.22-9.82-1.17-17.99-6.92-24.18-14.46-8.82-12.3-8.82-12.3-8.82-17.54z"/>
	<path class="s43" d="m611 502c3.63 1.32 7.26 2.64 11 4-1 5-1 5-2.75 8.31-2.13 4.09-3.55 8.31-4.94 12.69q-0.32 0.99-0.65 2.01c-1.07 3.49-1.81 6.79-2.18 10.43q-0.24 1.75-0.48 3.56c-2.82 1.41-4.17 0.51-7.12-0.44-1.37-0.43-1.37-0.43-2.76-0.87q-1.05-0.34-2.12-0.69 0.23-1.15 0.48-2.34 0.51-2.63 0.9-5.29c0.62-2.37 0.62-2.37 2-3.61 2.29-2.49 3.09-5.16 4.25-8.32 2.34-6.39 2.34-6.39 3.37-8.44q0.34-2.81 0.56-5.63c0.22-2.66 0.22-2.66 0.44-5.37z"/>
	<path class="s44" d="m393 626c1.94 0.58 1.94 0.58 4 2 0.65 2.95 0.65 2.95 0.94 6.69 1.3 13 5.63 24.02 13.44 34.5 1.62 2.81 1.62 2.81 1.56 5.31-1.11 2.96-2.45 5.72-3.94 8.5-9.71-8.71-15.01-25.48-15.92-38.17-0.18-6.28-0.15-12.55-0.08-18.83z"/>
	<path class="s45" d="m570.88 475.63c4.36 0.52 6.73 1.67 9.54 5.1 3.08 4.46 4.42 7.74 3.58 13.27-1.25 2.82-2.28 4.46-4.75 6.31-3.48 1.07-5.61 1.31-9.25 0.69-2.7-2.4-4.87-5.09-7-8q0.99-2.46 2-5c2.97 0.5 2.97 0.5 6 1q0-0.99 0-2-1.97-0.49-4-1c0.88-3.87 0.88-3.87 2-5q-1.97-0.99-4-2c1.86-2.48 2.74-2.97 5.88-3.37z"/>
	<path class="s46" d="m660 506q0.99 0 2 0c5.93 12.17 8.15 25.39 5.19 38.81-1.13 3.04-1.89 4.09-4.19 6.19q-1.23-2.05-2.44-4.13c-0.68-1.14-0.68-1.14-1.37-2.32-4.79-10.27-3.27-26.37 0.15-36.81q0.33-0.86 0.66-1.74z"/>
	<path class="s47" d="m335 510q0.99 0 2 0c4.4 12.84 4.83 26.81-1.09 39.3-0.9 1.61-1.9 3.16-2.91 4.7-4.52-3.98-4.77-9.06-5.23-14.84-0.3-10.6 2.08-19.92 7.23-29.16z"/>
	<path class="s48" d="m584.38 548.69q1.45-0.06 2.96-0.12c2.66 0.43 2.66 0.43 4.51 2.2 1.15 2.23 1.15 2.23 1.15 6.23q-1.42 0.06-2.87 0.12c-5.42 0.74-9.63 3.99-14.13 6.88-3.38 1.69-7.16 1.27-10.87 1.31q-1.22 0.05-2.48 0.09c-6.06 0.06-6.06 0.06-9.22-2.42q-0.7-0.97-1.43-1.98 1.68-0.61 3.41-1.24c4.76-1.79 9.39-3.81 14.03-5.89q1.21-0.53 2.46-1.08 1.16-0.52 2.35-1.05 1.04-0.46 2.11-0.94c3.1-1.52 4.25-2.02 8.02-2.11z"/>
	<path class="s49" d="m511 393c0.66 1.98 1.32 3.96 2 6q1.26-0.74 2.56-1.5c3.78-1.65 6.37-1.74 10.44-1.5q0 0.49 0 1-2.96 0-6 0 0 0.99 0 2 1.48 0.99 3 2c-0.87 0.26-0.87 0.26-1.76 0.52-5.07 1.57-8.92 3.42-13.24 6.48q-0.99 0-2 0c0.33-2.64 0.66-5.28 1-8q-0.78 0.68-1.58 1.39c-6.7 5.59-13.2 8.12-21.52 10.49-8.55 2.48-16.08 5.95-23.9 10.12q-1.48-1.97-3-4c8.89-5.18 17.42-9.42 27.38-12.13 8.39-2.28 16.1-5.02 22.21-11.58 1.41-1.29 1.41-1.29 4.41-1.29z"/>
	<path class="s50" d="m610.95 687.84c3.43 0.35 5.57 0.68 8.05 3.16-0.32 3.81-0.86 5.78-3 9q-0.99 0-2 0 0-0.99 0-2-0.99 0-2 0-0.1 0.91-0.2 1.84c-0.8 2.16-0.8 2.16-2.82 3.54-9.7 4.11-19.58 5.36-29.98 6.62 1.24-3.44 2.4-6.38 5-9 2.86-0.87 2.86-0.87 6.19-1.44 7.07-1.45 12.59-3.37 16.81-9.44 2-2.12 2-2.12 3.95-2.28z"/>
	<path class="s51" d="m330 563c-1.1 5.65-4.62 9.2-9.13 12.61-7.67 4.9-17.58 9.98-26.87 9.39 5.21-11.03 15.56-17.18 26.7-21.36 3.25-0.91 5.95-0.93 9.3-0.64z"/>
	<path class="s52" d="m666 560c9.38-1.13 17.25 2.76 24.67 8.23 4.99 3.99 9.34 7.56 11.33 13.77-12.18-1.22-24.83-6.61-33-16-2-3.44-2-3.44-3-6z"/>
	<path class="s53" d="m381 456q1.48 0.49 3 1c3.92 11.75 3.29 24.86-2 36q-1.97 0-4 0c-4.23-13.16-2.41-24.62 3-37z"/>
	<path class="s54" d="m409 473c-3.34 11.48-11.18 19.21-21.38 24.88-2.62 1.12-2.62 1.12-4.62 1.12 0.4-7.81 5.34-13.74 10.94-18.81 4.69-3.86 8.79-7.19 15.06-7.19z"/>
	<path class="s55" d="m338.75 575.94q1.19 0.01 2.42 0.02 0.9 0.02 1.83 0.04c-1.33 5.66-5.33 8.07-10 11-6.77 3.97-13.22 4.74-21 5 3-6.92 9.52-11.13 16.14-14.27 3.61-1.41 6.73-1.85 10.61-1.79z"/>
	<path class="s56" d="m702 500c0.63 1.81 0.63 1.81 1 4-0.99 1.49-0.99 1.49-2 3q-1.48-0.49-3-1c-0.38 1.08-0.38 1.08-0.78 2.18-3.55 8.21-10.16 15.08-16.17 21.58-1.75 1.91-3.38 3.85-4.99 5.87q-1.01 1.16-2.06 2.37-0.99 0-2 0c4.37-15.89 14.84-27.47 28-37q0.99-0.49 2-1z"/>
	<path class="s57" d="m566 619c1.62 3.54 2.1 6.13 2 10-1.13-0.02-1.13-0.02-2.29-0.03q-5.17-0.06-10.34-0.1-1.77-0.02-3.6-0.05c-1.73-0.01-1.73-0.01-3.5-0.02q-1.58-0.01-3.2-0.03c-3.3 0.25-5.95 1.17-9.07 2.23-2.52-0.83-2.52-0.83-4.81-2.25q-1.15-0.68-2.33-1.39c-1.86-1.36-1.86-1.36-2.86-3.36q1.21 0.05 2.46 0.11c11.06 0.26 21.79-1.1 32.42-4.21 3.12-0.9 3.12-0.9 5.12-0.9z"/>
	<path class="s58" d="m293 505c9.13 1.79 18.13 11.42 23.21 18.74 6.92 10.88 6.92 10.88 7.79 17.26-10.36-4.29-22.01-21.03-27-31q-1.48 0-3 0-0.49-2.46-1-5z"/>
	<path class="s59" d="m654 573c10.06-0.63 16.22 1.88 24.01 8.21 2.3 2.07 4.22 4.25 5.99 6.79-8.98 0.95-15.52-0.93-23-6-2.65-2.46-4.97-5-7-8q0-0.49 0-1z"/>
	<path class="s60" d="m278 541q0.77 0.29 1.57 0.59c10.53 3.96 20.68 7.2 31.83 8.8 3.38 0.57 6.39 1.43 9.6 2.61q0 0.99 0 2c-10.74 3.58-22 0.33-32-4-4.14-2.1-8.1-4.48-12-7q0.49-1.48 1-3z"/>
	<path class="s61" d="m719 539q0 0.99 0 2-3.84 1.94-7.69 3.88-1.07 0.54-2.18 1.1c-9.13 4.59-16.84 6.2-27.07 6.08q-1.16 0-2.36-0.01-2.85-0.02-5.7-0.05-0.49-0.99-1-2c7.34-2.55 14.39-4.32 22.06-5.44 6.75-0.98 12.48-2.65 18.65-5.67 2.29-0.89 2.29-0.89 5.29 0.11z"/>
	<path class="s62" d="m430 408c7.48 0.35 13.61 1.63 19.05 7.04q2.57 2.9 4.95 5.96-0.49 0.99-1 2-0.76-0.59-1.54-1.21c-7.92-6.1-13.33-8.64-23.46-7.79-5.15 1.05-7.54 3.1-11 7q-1.26 1.35-2.56 2.75c-4.28 5.24-6.75 11.54-7.44 18.25q-0.99 0-2 0c-0.28-5.58-0.18-8.3 3-13q0.68-2.02 1.31-4.06c1.5-4.26 3.85-5.61 7.69-7.94 0.72-2.05 0.72-2.05 1-4q2.16-0.51 4.31-1c1.2-0.28 1.2-0.28 2.43-0.56 2.26-0.44 2.26-0.44 5.26-0.44q0-1.48 0-3z"/>
	<path class="s63" d="m421 540q0.99 0 2 0c-0.78 4.88-2.42 9.42-4.06 14.06q-0.46 1.31-0.93 2.65c-4.85 13.62-10.38 26.98-16.01 40.29q-0.99 0-2 0c0.56-4.79 1.54-9.01 3.19-13.54q0.67-1.84 1.35-3.73 0.73-1.96 1.46-3.92 0.36-0.98 0.74-2c4.24-11.51 8.98-22.73 14.26-33.81z"/>
	<path class="s64" d="m351 409c1.55 2.9 2.59 5.71 3.47 8.88 0.39 1.38 0.39 1.38 0.79 2.79q0.4 1.42 0.8 2.89 0.8 2.85 1.6 5.69 0.35 1.26 0.71 2.55 0.76 2.61 1.63 5.2-1.48 0-3 0c0 3.3 0 6.6 0 10-2-1-2-1-2.76-2.85q-1.18-3.97-2.3-7.96-0.41-1.42-0.82-2.88c-1.87-6.81-3.09-13.23-3.12-20.31q0.99-0.49 2-1 0.49-1.48 1-3z"/>
	<path class="s65" d="m605 497q0.99 0.49 2 1c0.96 2.88 1.11 4.7 1.06 7.69q-0.01 1.2-0.02 2.45-0.02 0.91-0.04 1.86-1.48 0-3 0 0.09 1.75 0.19 3.56c-0.01 4.54-0.94 7.5-3.19 11.44q-1.99 0.54-4 1-1.08 2.97-2 6c-2.13 2.88-2.13 2.88-4 5q-1.48-0.49-3-1c0.66-4.35 2.27-7.97 4-12 0.69-2.78 0.69-2.78 1-5q2.46 0.49 5 1c3.4-7.74 5.36-14.54 6-23z"/>
	<path class="s66" d="m554.19 632.56c12.41 0.02 23.78 3.59 32.81 12.44 7.15 7.24 7.15 7.24 8 12q-1.45-1.26-2.94-2.56-2.03-1.72-4.06-3.44c-0.98-0.86-0.98-0.86-1.98-1.75-12.17-10.23-25.73-12.5-41.02-14.25 2.79-2.79 5.44-2.43 9.19-2.44z"/>
	<path class="s67" d="m629 363q0.99 0 2 0c3.81 9.63 4.74 20.4 1.63 30.38-1.63 3.62-1.63 3.62-3.63 4.62-1.17-3.52-1.13-6.32-1.13-10.04q0-1.02-0.01-2.06 0-2.16 0.01-4.32 0.01-3.31-0.01-6.62 0-2.09 0.01-4.19 0-1.9 0-3.86c0.13-2.91 0.13-2.91 1.13-3.91z"/>
	<path class="s68" d="m579 620q2.72 0.42 5.44 0.88c1.51 0.24 1.51 0.24 3.06 0.49q1.23 0.31 2.5 0.63c1.64 3.28 0.27 6.66-0.44 10.13q-0.22 1.12-0.44 2.28-0.56 2.8-1.12 5.59-0.49-0.99-1-2-2.48-1.05-5-2-3.01-1.47-6-3 0.99-0.49 2-1c0.47-2.82 0.47-2.82 0.62-6.06q0.12-1.65 0.23-3.35 0.07-1.28 0.15-2.59z"/>
	<path class="s69" d="m508 485c3.06 2 3.06 2 5 4q-0.49 1.48-1 3c-1.02-0.99-1.02-0.99-2.06-2-3.65-2.48-5.61-2.47-9.94-2-2.79 0.85-3.82 1.8-5.75 4-1.77 4.26-2 8.45-1.25 13 1.14 2.33 1.14 2.33 3 4 4.61 1.27 8.32 0.37 12.44-1.88 3.66-3.5 4.02-8.29 4.56-13.12q0.49 0 1 0c0.49 4.82 0.65 8.73-2.12 12.88-3.48 4.2-6.98 5.85-12.38 6.62-4.7-0.67-6.2-2.13-9.5-5.5-1.64-4.93-1.59-9.26 0.06-14.13 4.59-6.8 9.42-10.81 17.94-8.87z"/>
	<path class="s70" d="m583 610c-0.66 2.64-1.32 5.28-2 8q2.98 0.29 5.96 0.59c2.04 0.41 2.04 0.41 5.04 2.41q-0.49 1.48-1 3-6-2-12-4 0.03 1.85 0.06 3.75c0.01 2.91-0.13 5.46-1.06 8.25q-1.97 0-4 0-0.76-2.87-1.5-5.75-0.42-1.59-0.84-3.23c-0.66-3.02-0.66-3.02-0.66-7.02 2.12-1.7 2.12-1.7 4.88-3.25 1.35-0.78 1.35-0.78 2.74-1.58 2.38-1.17 2.38-1.17 4.38-1.17z"/>
	<path class="s71" d="m371 368q0.49 0 1 0 0.04 6.73 0.05 13.45 0.01 2.29 0.03 4.58 0.01 3.29 0.02 6.58 0.01 1.97 0.01 4c-0.09 2.7-0.29 4.84-1.11 7.39q-0.99 0-2 0c-4.59-12.35-3.73-22.76 1-35q0.49-0.49 1-1z"/>
	<path class="s72" d="m561 713c-1.02 1.98-1.02 1.98-3 4-2.72 0.36-5.02 0.47-7.73 0.39q-1.12-0.01-2.27-0.02-3.6-0.04-7.19-0.12-2.43-0.03-4.87-0.05-5.97-0.07-11.94-0.2 0-0.49 0-1c-23.26-0.5-23.26-0.5-47-1q0-0.49 0-1 1.25-0.02 2.55-0.03 11.93-0.15 23.87-0.31 6.13-0.08 12.27-0.16 5.93-0.07 11.87-0.15 2.25-0.03 4.5-0.06c7.61-0.09 15.15-0.25 22.71-1.18 2.3-0.11 4.04 0.21 6.23 0.89z"/>
	<path class="s73" d="m326 552c4.43 2.37 7.69 5.34 11.19 8.88 0.85 0.85 0.85 0.85 1.71 1.72 7.98 8.19 15.04 17.1 20.1 27.4q-1.48 0-3 0-0.49 0.99-1 2-0.53-1.02-1.07-2.06c-3.62-6.59-7.69-12.43-12.43-18.25q-0.8-0.98-1.62-1.99c-3.27-3.96-6.72-7.61-10.44-11.15-1.84-1.98-2.73-3.95-3.44-6.55z"/>
	<path class="s74" d="m670 548c0 4.27-2.54 5.98-5.38 8.88-8.76 9.23-16.42 18.95-22.62 30.12q-1.97-0.99-4-2c7.27-12.09 18.82-30.41 32-37z"/>
	<path class="s75" d="m611 502c3.63 1.32 7.26 2.64 11 4-1.11 5.54-1.11 5.54-2.81 8.63-2.58 4.93-4.37 10.11-6.19 15.37q-0.99-0.49-2-1 0.47-2.13 0.94-4.25 0.26-1.18 0.52-2.39 0.52-2.28 1.17-4.53c0.58-1.92 0.58-1.92-0.63-3.83q-1.48 0.49-3 1c0.33-4.29 0.66-8.58 1-13z"/>
	<path class="s76" d="m627 472q2.46 0.49 5 1c0.8 2.8 1.22 4.43 0.14 7.18q-0.65 1.11-1.33 2.26c-3.37 6.22-5.05 12.75-6.81 19.56-4.12 0.99-6.15 0.87-10-1q0-1.97 0-4 2.96 0 6 0 1.97-4.62 3.94-9.25 0.55-1.3 1.13-2.64 0.53-1.26 1.08-2.56 0.49-1.16 1-2.35c0.79-2.06 1.37-4.05 1.85-6.2q-0.99 0-2 0 0-0.99 0-2z"/>
	<path class="s77" d="m593 602c1.62 3.25 0.55 6.64 0.06 10.13q-0.15 1.12-0.3 2.28-0.37 2.8-0.76 5.59c-3.63-0.66-7.26-1.32-11-2 0-6.93 0-6.93 1-9 1.71-1.06 3.43-2.12 5.21-3.05 2.1-1.12 3.93-2.47 5.79-3.95z"/>
	<path class="s78" d="m418 483q0.99 0.99 2 2c-0.17 2.29-0.17 2.29-0.75 5.06-0.3 1.47-0.3 1.47-0.61 2.97q-0.32 1.46-0.64 2.97-0.24 1.33-0.48 2.69-0.23 1.2-0.46 2.44-0.2 1.08-0.4 2.19-0.32 0.83-0.66 1.68-1.48 0.49-3 1c-0.73 2.02-0.73 2.02-1 4q1.48 0.49 3 1c0 4.62 0 9.24 0 14q-0.49 0-1 0c0-4.29 0-8.58 0-13q-1.97-0.49-4-1c-0.31-6.11 0.82-11.47 2.31-17.38 0.32-1.37 0.32-1.37 0.65-2.76q0.32-1.3 0.65-2.63 0.29-1.18 0.59-2.39 0.39-0.91 0.8-1.84 1.48-0.49 3-1z"/>
	<path class="s79" d="m630 465q0.49 0 1 0c0 2.31 0 4.62 0 7q-1.97 0-4 0 0 0.99 0 2 0.99 0 2 0c-0.63 5.34-2.34 9.89-4.38 14.81-0.45 1.17-0.45 1.17-0.92 2.35q-0.45 1.1-0.91 2.23-0.41 1-0.82 2.03c-0.97 1.58-0.97 1.58-3.97 2.58q-1.48-0.99-3-2 0.45-0.94 0.92-1.91c3.53-7.55 6.38-15.21 9.08-23.09q2.46 0 5 0 0-2.95 0-6z"/>
	<path class="s80" d="m422 664c6.36-0.45 10.71 0.31 16 4 2.06 1.91 3.4 3.65 5 6q0 1.48 0 3c-3.11-1.47-5.9-3.2-8.75-5.13q-1.19-0.8-2.42-1.63-0.9-0.61-1.83-1.24 0 1.48 0 3-2.47-0.17-4.94-0.38c-1.37-0.1-1.37-0.1-2.77-0.21-1.14-0.2-1.14-0.2-2.29-0.41q-0.49-0.99-1-2c-2.02-1.13-2.02-1.13-4-2 1.45-0.19 1.45-0.19 2.94-0.38 1.51-0.3 1.51-0.3 3.06-0.62q0.49-0.99 1-2z"/>
	<path class="s81" d="m565 538c7.04 0.44 14.51 1.08 21 4 1.31 2.11 1.31 2.11 2 4q-0.99 0-2 0 0 0.99 0 2 0.99 0.49 2 1c-8.08 0.78-12.46-1.36-19-6q-1.13-0.78-2.29-1.57-0.84-0.71-1.71-1.43 0-0.99 0-2z"/>
	<path class="s82" d="m596 561c2.28 1.14 3.99 2.39 6 4q-0.49 0.99-1 2c-1.02-0.74-1.02-0.74-2.06-1.5-3.81-1.95-5.68-2.13-9.94-1.5-2.56 1.37-4.97 2.91-7.42 4.46-9.1 5.43-18.41 4.97-28.58 3.54-2.91-0.77-5.28-1.7-8-3q0-0.99 0-2 1.05 0.22 2.13 0.44c10.52 1.98 24.59 4.43 34.07-1.91q1.13-0.81 2.3-1.66c4.53-3.18 7.01-3.77 12.5-2.87z"/>
	<path class="s83" d="m597 544c7.63 0.88 7.63 0.88 11 2-0.65 3.52-1.51 6.89-2.56 10.31q-0.4 1.32-0.82 2.68-0.3 0.99-0.62 2.01-1.32-0.71-2.69-1.44c-2.88-1.36-5.19-2.1-8.31-2.56q0-0.49 0-1 2.46 0 5 0-0.49-0.99-1-2-0.1-2.56-0.06-5.13 0.01-1.35 0.02-2.75 0.02-1.05 0.04-2.12zm2 8c0 3 0 3 0 3z"/>
	<path class="s84" d="m629 404q0.99 0 2 0c3.82 8.66 6.96 16.37 7 26q2.46-0.49 5-1c-0.5 4.97-1.55 8.64-4 13q-0.99-0.49-2-1c-0.33-1.9-0.56-3.83-0.75-5.75-1.18-9.4-3.97-18.28-6.73-27.32-0.52-1.93-0.52-1.93-0.52-3.93z"/>
	<path class="s85" d="m362 479q0.99 0 2 0 0.1 0.99 0.2 2.01c1.55 15.53 3.87 30.64 7.39 45.86 0.41 2.13 0.41 2.13 0.41 5.13q-0.99 0-2 0c-4.69-17.24-9.01-35-8-53z"/>
	<path class="s86" d="m508 393q1.48 0 3 0c0.66 1.98 1.32 3.96 2 6 1.27-0.74 1.27-0.74 2.56-1.5 3.78-1.65 6.37-1.74 10.44-1.5q0 0.49 0 1-2.96 0-6 0 0 0.99 0 2 1.48 0.99 3 2c-0.87 0.26-0.87 0.26-1.76 0.52-5.07 1.57-8.92 3.42-13.24 6.48q-0.99 0-2 0c0.33-2.64 0.66-5.28 1-8q-2.46-0.49-5-1 3-3 6-6z"/>
	<path class="s87" d="m570.88 475.56c4.34 0.61 6.73 1.75 9.54 5.17 3.08 4.46 4.42 7.74 3.58 13.27-1.29 2.9-2.32 4.5-4.87 6.37-2.69 0.79-4.47 0.37-7.13-0.37q0.89-0.43 1.81-0.88c2.38-1.17 2.38-1.17 5.19-3.12 0.94-4.81 0.68-8.89-1.87-13.06-2.92-2.66-4.41-3.06-8.25-3-1.92 0.03-1.92 0.03-3.88 0.06 1.7-3.02 2.37-3.9 5.88-4.44z"/>
	<path class="s59" d="m395 396c-4.23 6.73-8.19 11.4-16 14-3.44 0.19-3.44 0.19-6 0 0.13-1.81 0.13-1.81 1-4q2.96-1.58 6-3c2.07-1.48 4.07-3.02 6.07-4.6 5.07-3.69 5.07-3.69 8.93-2.4z"/>
	<path class="s88" d="m651 402q0.99 0 2 0c-0.96 7.88-2.49 15.54-4.38 23.25q-0.29 1.23-0.59 2.5c-1.44 5.73-3.47 10.94-6.03 16.25q-0.99 0-2 0c0.58-6.62 2.27-12.46 4.38-18.75 2.52-7.7 4.87-15.34 6.62-23.25z"/>
	<path class="s89" d="m601 532q0.49 0.99 1 2-1.4 3.54-3 7c3.3 0.66 6.6 1.32 10 2-0.99 0.5-0.99 0.5-2 1q0 0.99 0 2c-3.3-0.66-6.6-1.32-10-2-0.33 3.63-0.66 7.26-1 11-2.88-2.88-3.92-4.2-5-8 0.34-4.71 2.38-6.95 5.56-10.31q1.24-1.32 2.51-2.68 0.95-0.99 1.93-2.01z"/>
	<path class="s90" d="m425 469q2.46 0 5 0-1.97 0.49-4 1-0.04 0.82-0.08 1.66c-0.49 6.84-2.1 13.18-3.93 19.75-1.15 4.18-2.1 8.36-2.99 12.59-1.98 0.5-1.98 0.5-4 1q0.99-4.5 2-9 0.21-0.95 0.42-1.93c1.9-8.66 3.85-16.98 7.58-25.07z"/>
	<path class="s91" d="m566 619c1.74 3.8 2 5.6 2 10-6.93-0.33-13.86-0.66-21-1q0-0.49 0-1c2.64-0.33 5.28-0.66 8-1q0.49-1.48 1-3-0.99-0.49-2-1 2.44-0.75 4.88-1.5 1.35-0.42 2.74-0.84c2.38-0.66 2.38-0.66 4.38-0.66z"/>
	<path class="s92" d="m650 404c-0.24 9.17-3.11 17.4-6 26q-2.96 0-6 0 0.49-1.97 1-4 0.49 0.49 1 1c2.8-8.77 2.8-8.77 5.06-17.69 1.51-5.31 1.51-5.31 4.94-5.31z"/>
	<path class="s93" d="m609 531q1.48 0 3 0-0.17 2.97-0.38 5.94-0.1 1.64-0.21 3.34-0.2 1.34-0.41 2.72c-2.82 1.41-4.17 0.51-7.13-0.44q-1.35-0.43-2.75-0.87-1.05-0.34-2.12-0.69 0.49-2.46 1-5c2.89-0.83 4.89-1 8-1q0.49-1.97 1-4z"/>
	<path class="s94" d="m419 503c1.01 3.15 0.79 4.85 0 8q-0.11 2.05-0.1 4.11 0.01 1.12 0.01 2.28 0.01 1.16 0.03 2.36 0 1.18 0.01 2.4 0.02 2.93 0.05 5.85-1.97-0.49-4-1c-0.07-1.72-0.07-1.72-0.15-3.46q-0.11-2.24-0.23-4.48-0.04-1.12-0.09-2.28c-0.1-1.94-0.31-3.86-0.53-5.78q-0.99-0.49-2-1 0.49-2.46 1-5 0.92-0.22 1.88-0.44c2.15-0.49 2.15-0.49 4.12-1.56z"/>
	<path class="s95" d="m369 409c1.65 4.02 0.17 7.21-1.25 11.06q-0.71 2.01-1.41 4.01-0.34 0.99-0.7 2.01c-1.2 3.59-2.08 7.26-2.96 10.94-0.68 1.98-0.68 1.98-2.68 2.98-0.99 1.49-0.99 1.49-2 3-1-1-1-1-1.06-3.56q0.03-1.2 0.06-2.44 1.48 0 3 0 0.14-1.92 0.28-3.91c0.58-5.24 2.22-9.74 4.22-14.59q0.48-1.21 0.97-2.45c2.36-5.88 2.36-5.88 3.53-7.05z"/>
	<path class="s96" d="m576 520c4.48 2 7.44 4.81 10 9 0.38 3.94 0.38 3.94 0 7q-1.48 0.49-3 1-0.49 0.99-1 2c-3.1-6.23-4.91-12.14-6-19z"/>
	<path class="s97" d="m601 386c4.35 0.56 7.18 2.15 10.81 4.56 1.47 0.96 1.47 0.96 2.96 1.94q1.1 0.74 2.23 1.5-0.99 1.97-2 4c-5.27-0.32-8.54-3.27-12-7-1.44-2.87-1.44-2.87-2-5z"/>
	<path class="s98" d="m393 626c1.95 0.7 1.95 0.7 4 2 2.15 7.25 0.84 15.61 0 23q-0.99 0-2 0c-2.39-8.36-2.19-16.39-2-25z"/>
	<path class="s99" d="m679 540q0.99 0.49 2 1c-4.23 7.51-11.11 12.97-18 18 1.67-3.94 4.23-6.79 7-10-2.64 1.98-5.28 3.96-8 6q-0.49-0.99-1-2c2.79-4.19 6.24-6.41 11-8 2.4-1.6 4.7-3.26 7-5z"/>
	<path class="s100" d="m573 637c8.45 1.17 14.28 7.96 19.69 14.11 1.37 1.98 1.89 3.53 2.31 5.89q-1.45-1.26-2.94-2.56c-2.83-2.43-5.72-4.74-8.69-7-8.39-6.48-8.39-6.48-10.37-10.44z"/>
	<path class="s101" d="m348 413c2.4 2.4 2.66 3.89 3.47 7.16q0.39 1.52 0.79 3.09 0.4 1.6 0.8 3.25 0.8 3.17 1.6 6.34 0.35 1.41 0.71 2.85c0.55 2.31 0.55 2.31 1.63 4.31q0.06 3.5 0 7c-2-1-2-1-2.76-2.85q-1.18-3.97-2.3-7.96-0.41-1.42-0.82-2.88c-1.87-6.81-3.09-13.23-3.12-20.31z"/>
	<path class="s102" d="m594 519c2 1.31 2 1.31 4 3q0 1.48 0 3 1.48 0.49 3 1-1.48 0-3 0-0.37 1.32-0.75 2.69c-1.29 3.41-2.85 5.59-5.25 8.31q-1.48-0.49-3-1c0.66-4.35 2.27-7.97 4-12 0.69-2.78 0.69-2.78 1-5z"/>
	<path class="s103" d="m513 503q1.97 0.99 4 2c-0.64 3.41-1.95 5.76-3.88 8.63q-0.76 1.15-1.55 2.35c-1.57 2.02-1.57 2.02-4.57 4.02q0-1.97 0-4 0.99 0 2 0c-0.83-2.17-0.83-2.17-3-3 1.23-3.7 3.23-5.3 6-8q0.49-0.99 1-2z"/>
	<path class="s104" d="m421 405q1.97 0.99 4 2 0 1.48 0 3 0.99 0.99 2 2c-4.45 0.5-4.45 0.5-9 1q-0.49 2.46-1 5-0.92-0.52-1.88-1.06-1.04-0.46-2.12-0.94c-0.99 0.5-0.99 0.5-2 1q-0.49-1.97-1-4c3.42-3.15 6.44-3.56 11-4q0-1.97 0-4z"/>
	<path class="s105" d="m368 493q0.49 0 1 0 0.13 0.83 0.26 1.68 0.59 3.79 1.18 7.57 0.2 1.3 0.41 2.64 0.19 1.26 0.4 2.56 0.18 1.16 0.36 2.35c0.37 2.1 0.85 4.14 1.39 6.2q-1.48 0.49-3 1-0.49 0.99-1 2-0.76-3.34-1.5-6.69-0.42-1.85-0.84-3.76c-1.09-5.88-0.45-9.84 1.34-15.55z"/>
	<path class="s106" d="m549.06 488.75q1.28-0.01 2.6-0.02c2.34 0.27 2.34 0.27 5.34 2.27q0 0.99 0 2-1.39 0.09-2.82 0.18c-9.12 0.62-9.12 0.62-18.18 1.82 4.09-4.38 7-6.29 13.06-6.25z"/>
	<path class="s107" d="m565 505q-0.49 1.97-1 4c-9.41 2.3-9.41 2.3-14 2q0-0.99 0-2-0.99-0.99-2-2c5.81-1.51 11-2.22 17-2z"/>
	<path class="s108" d="m545 567q1.07 0.2 2.17 0.4c7.6 1.35 15.13 2.13 22.83 2.6q-0.49 1.48-1 3c-16.89-0.59-16.89-0.59-24-4q0-0.99 0-2z"/>
	<path class="s109" d="m648 570q0.99 1.48 2 3c-1.54 3.2-3.29 6.22-5.13 9.25q-0.8 1.33-1.63 2.7-0.61 1.01-1.24 2.05-1.97-0.99-4-2 1.65-2.63 3.31-5.25 0.92-1.45 1.87-2.95c1.52-2.35 3.11-4.59 4.82-6.8z"/>
	<path class="s110" d="m627 472q2.46 0.49 5 1c1.09 3.35 1.09 4.78-0.21 8.11-0.86 1.59-0.86 1.59-1.73 3.2q-0.84 1.6-1.71 3.24c-0.67 1.21-0.67 1.21-1.35 2.45q-0.99-0.49-2-1c0.67-5.26 2.24-10.03 4-15q-0.99 0-2 0 0-0.99 0-2z"/>
	<path class="s111" d="m617 395c2.83 0.73 5.46 1.53 8 3 1 3.19 1 3.19 1 6-5.28-0.52-8.57-2.25-13-5q1.97-1.97 4-4z"/>
	<path class="s112" d="m586 557q2.87-0.12 5.75-0.19c1.6-0.05 1.6-0.05 3.23-0.1 3.32 0.32 4.61 1.06 7.02 3.29-0.99 1.49-0.99 1.49-2 3q-2.66-0.35-5.31-0.75c-1.48-0.21-1.48-0.21-2.99-0.42-3.17-0.97-4.03-2.03-5.7-4.83z"/>
	<path class="s113" d="m425 469q2.46 0 5 0-1.97 0.49-4 1-0.07 0.94-0.15 1.91c-0.48 5.56-1.36 10.71-2.85 16.09q-1.48-0.49-3-1c0.49-6.61 2.33-11.95 5-18z"/>
	<path class="s114" d="m364 687c4.08 2.86 6.22 5.32 8 10 0.19 3.38 0.19 3.38 0 6q-1.48 0-3 0-1.26-3.44-2.5-6.88c-0.36-0.97-0.36-0.97-0.72-1.97-1.78-4.92-1.78-4.92-1.78-7.15z"/>
	<path class="s115" d="m379 547c-5.61 0.66-11.22 1.32-17 2q0-0.49 0-1c-2.64-0.33-5.28-0.66-8-1q0-0.49 0-1 4.37-0.54 8.75-1.06c1.24-0.16 1.24-0.16 2.5-0.32q1.19-0.14 2.42-0.28 1.1-0.13 2.22-0.27c3.86-0.13 5.89 0.78 9.11 2.93z"/>
	<path class="s116" d="m629 515q0.99 0 2 0c0.31 5.22-0.12 8.58-3 13-2.11 1.17-2.11 1.17-4 2 1.03-5.45 2.25-10.12 5-15z"/>
	<path class="s117" d="m570 462q0.49 0.99 1 2c-1.64 0.37-1.64 0.37-3.31 0.75-3.94 1.34-4.69 1.78-6.69 5.25-0.57 2.81-0.57 2.81-0.69 5.75q-0.1 1.47-0.2 2.98-0.05 1.12-0.11 2.27-0.99 0-2 0c-0.63-9.77-0.63-9.77 1.81-14.56 3.33-3.72 5.3-4.7 10.19-4.44z"/>
	<path class="s118" d="m583 542c1.94 0.31 1.94 0.31 4 1q0.49 1.48 1 3-0.99 0-2 0 0 0.99 0 2 0.99 0.49 2 1c-8.19 0.47-8.19 0.47-11.56-1.5q-0.71-0.74-1.44-1.5 1.69-0.43 3.44-0.88 1.75-0.55 3.56-1.12 0.49-0.99 1-2z"/>
	<path class="s119" d="m596 531q1.97 0.99 4 2c-1.96 3.53-4.04 6.24-7 9q-1.48-0.49-3-1c0.51-4.38 3.18-6.82 6-10z"/>
	<path class="s120" d="m402 386q0.49 0 1 0c0.34 2.11 0.34 2.11 0 5-1.78 2.3-3.48 4.27-5.5 6.31q-0.78 0.82-1.59 1.67-1.94 2.02-3.91 4.02-0.99-0.99-2-2 0.99-1.17 2-2.37c2.2-2.35 2.2-2.35 2-4.63 1.42-0.93 1.42-0.93 2.88-1.87 2.94-2.01 3.96-2.88 5.12-6.13z"/>
	<path class="s121" d="m397 657q0.99 0 2 0 1.47 4.12 2.94 8.25 0.41 1.16 0.84 2.36 0.4 1.12 0.81 2.28 0.37 1.03 0.75 2.1c0.65 1.98 1.18 3.97 1.66 6.01-3.37-3-5.05-5.77-6.75-9.94q-0.64-1.52-1.3-3.09c-0.92-2.87-1.15-4.98-0.95-7.97z"/>
	<path class="s122" d="m561 395q0 1.48 0 3-0.99 0.45-2.01 0.92c-5.22 2.47-9.22 4.68-12.99 9.08 0.48-4.31 1.6-6.02 4.94-8.75q1.06-0.88 2.15-1.8c3.07-2.33 3.82-2.45 7.91-2.45z"/>
	<path class="s123" d="m351 578c3.22 3.79 5.62 7.66 8 12q-1.48 0-3 0-0.49 0.99-1 2-1.59-2.36-3.13-4.75-0.86-1.32-1.75-2.67c-1.12-2.58-1.12-2.58-0.3-4.91q0.58-0.82 1.18-1.67z"/>
	<path class="s124" d="m588 543q1.48 0 3 0c1.32 3.63 2.64 7.26 4 11q0.99-1.97 2-4 0.49 2.96 1 6-2.46 0-5 0-0.62-1.42-1.25-2.88c-1.75-3.13-2.46-3.99-5.75-5.12q0-0.99 0-2 0.99 0 2 0 0-1.48 0-3zm11 9c0 3 0 3 0 3z"/>
	<path class="s125" d="m308 551c4.81-0.54 8.52 0.25 13 2q0 0.99 0 2c-5.28 0-10.56 0-16 0q1.48-1.97 3-4z"/>
	<path class="s126" d="m463 713q1.88-0.06 3.81-0.13 1.06-0.03 2.15-0.07c2.04 0.2 2.04 0.2 5.04 2.2q-0.49 0.99-1 2c-8.58 0-17.16 0-26 0q0-0.49 0-1c9.9-0.5 9.9-0.5 20-1q-1.97-0.99-4-2z"/>
	<path class="s127" d="m508 485c3.06 2 3.06 2 5 4q-0.49 1.48-1 3c-1.02-0.99-1.02-0.99-2.06-2-3.68-2.5-5.57-2.55-9.94-2-2.75 1.48-2.75 1.48-5 3q-0.99-0.49-2-1c4.66-4.78 8.3-6.39 15-5z"/>
	<path class="s128" d="m411 421c1.14 1.66 1.14 1.66 2 4-0.86 2.59-0.86 2.59-2.31 5.38-1.93 3.91-3.33 7.21-3.69 11.62q-0.99 0-2 0c-0.28-5.58-0.18-8.3 3-13 1.1-2.64 2.04-5.31 3-8z"/>
	<path class="s129" d="m629 404q0.99 0 2 0 1.59 3.58 3.13 7.19 0.45 1 0.91 2.04c1.4 3.33 2.11 5.22 1.14 8.76q-0.58 0.99-1.18 2.01c-2.25-3.84-3.1-7.96-4.13-12.25q-0.27-1.11-0.55-2.26-0.66-2.74-1.32-5.49z"/>
	<path class="s130" d="m564 397c7.1 0.69 11.88 3.45 16.44 8.75q1.3 1.61 2.56 3.25-0.49 0.99-1 2-0.74-1.08-1.5-2.19c-4.83-5.43-10.49-8.2-17.5-9.81q0.49-0.99 1-2z"/>
	<path class="s131" d="m325 544c2 3.75 2 3.75 2 6q0.49-0.99 1-2 0.99 0 2 0c0.99 2.31 1.98 4.62 3 7-3 0-3 0-6-2-1.98 0.99-1.98 0.99-4 2-1.04-3.13-0.93-3.99 0-7q0.99 0 2 0 0-1.97 0-4z"/>
	<path class="s132" d="m527 404q2.19 0.17 4.38 0.38c1.21 0.1 1.21 0.1 2.46 0.21 2.16 0.41 2.16 0.41 4.16 2.41q-0.49 1.48-1 3c-4.29-0.66-8.58-1.32-13-2q1.48-0.99 3-2 0-0.99 0-2z"/>
	<path class="s133" d="m421 540q0.99 0 2 0c-0.67 3.7-1.61 7.19-2.81 10.75q-0.47 1.44-0.96 2.92c-1.23 2.33-1.23 2.33-3.37 3.16q-0.91 0.08-1.86 0.17c1.83-6 4.07-11.45 7-17z"/>
	<path class="s134" d="m379 499c1.45 3.83 0.53 6.39-0.75 10.19-0.52 1.6-0.52 1.6-1.05 3.23q-0.59 1.27-1.2 2.58-1.48 0.49-3 1c1.11-6.31 2.93-11.38 6-17z"/>
	<path class="s135" d="m419 503c0.97 3 1.22 5.04 0 8-3 1-3 1-5.19 0.06q-0.89-0.52-1.81-1.06 0.49-2.46 1-5 0.92-0.22 1.88-0.44c2.15-0.49 2.15-0.49 4.12-1.56z"/>
	<path class="s136" d="m454 433q0.99 0.49 2 1-1.93 2.51-3.88 5-1.07 1.39-2.17 2.81-0.96 1.08-1.95 2.19-0.99 0-2 0c-1-3-1-3-0.5-4.94 2.31-3.17 4.97-4.36 8.5-6.06z"/>
	<path class="s137" d="m318 529c2.98 2.55 4.44 5.43 6 9q0 1.48 0 3c-4.21-1.5-5.74-4.29-8-8q0.99-1.97 2-4z"/>
	<path class="s138" d="m651 402q0.99 0 2 0c-1.02 7.1-2.1 14.08-4 21-2.03-3.29-2.12-5.08-1.25-8.81q0.3-1.3 0.6-2.64 1.21-4.81 2.65-9.55z"/>
	<path class="s139" d="m597 544q2.46 0 5 0c-0.33 3.3-0.66 6.6-1 10q-2 0-4 0c0-3.3 0-6.6 0-10z"/>
	<path class="s140" d="m554 531c-2.84 3.12-5.29 4.87-9.58 5.2q-1.31-0.04-2.67-0.08-1.33-0.02-2.7-0.05c-1.02-0.03-1.02-0.03-2.05-0.07q0-0.49 0-1c2.97 0 5.94 0 9 0q0-0.99 0-2c-2.64 0-5.28 0-8 0q0-0.49 0-1c0.94-0.09 0.94-0.09 1.9-0.18 1.22-0.13 1.22-0.13 2.48-0.26q1.21-0.12 2.46-0.24c6.49-0.95 6.49-0.95 9.16-0.32z"/>
	<path class="s141" d="m609 635q0 0.99 0 2-0.88 0.25-1.79 0.52c-4.9 1.5-8.31 3.05-12.21 6.48q-0.99 0-2 0c1.29-3.86 3.8-5.8 7.05-8.03 3-1.49 5.68-1.3 8.95-0.97z"/>
	<path class="s142" d="m394 595c0.99 0.5 0.99 0.5 2 1q1.48-0.49 3-1 1.48 0.49 3 1c2.64-0.39 2.64-0.39 5-1-1.45 3.83-3.38 5.19-7 7q-0.99 0-2 0 0.49-1.97 1-4-1.48 0.99-3 2-0.99-0.99-2-2 0-1.48 0-3z"/>
	<path class="s143" d="m623 521q1.48 1.48 3 3-0.64 1.91-1.31 3.81-0.37 1.06-0.74 2.15c-1.02 2.18-2.16 3.45-3.95 5.04q-0.99-0.49-2-1c1.65-4.29 3.3-8.58 5-13z"/>
	<path class="s144" d="m650 404c-0.33 3.3-0.66 6.6-1 10q-0.99-0.49-2-1c-0.66 1.98-1.32 3.96-2 6q-0.99 0-2 0 0.64-3.19 1.31-6.38 0.37-1.76 0.74-3.58c1.57-5.04 1.57-5.04 4.95-5.04z"/>
	<path class="s145" d="m410 593c2.61-0.34 2.61-0.34 5.88-0.29q1.74 0.01 3.54 0.03 1.82 0.03 3.71 0.07 1.83 0.02 3.73 0.04 4.57 0.06 9.14 0.15 0 0.49 0 1-1.77 0.09-3.59 0.18c-8.16 0.43-16.28 0.9-24.41 1.82q0.99-1.48 2-3z"/>
	<path class="s146" d="m375 515c0.2 4.22-0.2 7.17-2 11q-1.48-0.49-3-1c0-2.64 0-5.28 0-8 3.88-2 3.88-2 5-2z"/>
	<path class="s147" d="m513 494q0.49 0 1 0c0.5 4.88 0.63 8.76-2.19 12.94-2.3 2.79-4.17 4.35-7.81 5.06-3.31-0.37-3.31-0.37-6-1q0-0.49 0-1c0.9-0.15 0.9-0.15 1.83-0.3 3.55-0.66 6.51-1.29 9.61-3.2 2.41-3.86 2.91-8.04 3.56-12.5z"/>
	<path class="s148" d="m550.7 632.8q2.21 0.02 4.42 0.08 1.13 0.01 2.29 0.02 2.8 0.04 5.59 0.1-0.95 0.46-1.94 0.94c-2 0.89-2 0.89-3.06 2.06-4.53 0.15-8.58 0.1-13-1 2-2 2-2 5.7-2.2z"/>
	<path class="s149" d="m611 496q0.49 0.99 1 2 0.99 0 2 0 0 1.48 0 3c3.3 0.33 6.6 0.66 10 1q0 0.99 0 2-1.48 0-3 0-0.49 0.99-1 2c-4.46-1.98-4.46-1.98-9-4q0-2.95 0-6z"/>
	<path class="s150" d="m571 523q0.49 1.97 1 4c-3.8 2.83-6.19 4.57-11 4 0-2 0-2 2-4q3.49-1.53 7-3 0.49-0.49 1-1z"/>
	<path class="s151" d="m577 693q0.99 0 2 0c-0.75 2.88-0.75 2.88-2 6-1.94 1.13-1.94 1.13-4 2-1.73 2.03-1.73 2.03-3 4q-0.99-0.49-2-1 1.69-2.19 3.38-4.38 0.93-1.21 1.89-2.46c1.73-2.16 1.73-2.16 3.73-4.16z"/>
	<path class="s152" d="m377 689c1.19 3.43 0.8 5.38-0.44 8.75-0.43 1.2-0.43 1.2-0.87 2.42q-0.34 0.9-0.69 1.83-0.99 0-2 0c-0.49-7.26-0.49-7.26 2-11q0.99-0.99 2-2z"/>
	<path class="s153" d="m379 539q-0.49 1.97-1 4c-2.64 0.66-5.28 1.32-8 2q0.49-1.48 1-3-1.97-0.49-4-1 2.44-0.5 4.88-1 1.35-0.28 2.74-0.56c2.38-0.44 2.38-0.44 4.38-0.44z"/>
	<path class="s154" d="m503 490c2.06 0.44 2.06 0.44 4 1q0.49 2.46 1 5-2.49 0.57-5 1c-1-1-1-1-1.13-3.5 0.13-2.5 0.13-2.5 1.13-3.5z"/>
	<path class="s155" d="m653 664c0 3.69-1.28 5.78-3 9q-1.48 0-3 0-0.49 0.99-1 2-1.48-0.49-3-1 1.65-1.94 3.31-3.88 0.92-1.07 1.87-2.17c1.82-1.95 1.82-1.95 4.82-3.95z"/>
	<path class="s156" d="m418 483q0.99 0.99 2 2c-0.38 3.63-0.38 3.63-1 7q-2.46-0.49-5-1c0.33-2.31 0.66-4.62 1-7q1.48-0.49 3-1z"/>
	<path class="s157" d="m464 414c2 3 2 3 2 5-1.98 0.99-3.96 1.98-6 3q-1.48-1.97-3-4c2.31-1.32 4.62-2.64 7-4z"/>
	<path class="s158" d="m351 409c2.13 3.55 2.78 6.89 3 11-1.49 1.71-1.49 1.71-3 3q-0.58-2.37-1.13-4.75-0.31-1.32-0.63-2.67c-0.27-2.91 0.22-4.15 1.76-6.58z"/>
	<path class="s159" d="m368 514q0.49 0 1 0 0.75 3.66 1.5 7.31 0.21 1.03 0.43 2.09c0.6 2.93 1.07 5.61 1.07 8.6q-0.99 0-2 0-0.8-3.09-1.56-6.19c-0.44-1.72-0.44-1.72-0.88-3.48-0.54-3.21-0.44-5.23 0.44-8.33z"/>
	<path class="s160" d="m368 493q0.49 0 1 0 0.37 2.9 0.69 5.81c0.19 1.62 0.19 1.62 0.38 3.27-0.07 2.92-0.07 2.92-1.55 4.81q-0.75 0.55-1.52 1.11c-1.02-5.79-0.96-9.46 1-15z"/>
	<path class="s161" d="m642 429c0.93 2.55 1.09 3.74 0.22 6.36q-0.57 1.18-1.16 2.39c-0.57 1.2-0.57 1.2-1.15 2.42q-0.45 0.9-0.91 1.83-0.99-0.49-2-1 0-2.46 0-5c0.99 0.5 0.99 0.5 2 1 0-2.31 0-4.62 0-7q1.48-0.49 3-1z"/>
	<path class="s162" d="m348 413c2.57 2.57 2.8 4.61 3.63 8.13q0.38 1.63 0.78 3.32c0.29 1.26 0.29 1.26 0.59 2.55q-0.99 0-2 0-0.49 1.48-1 3c-2.3-11.52-2.3-11.52-2-17z"/>
	<path class="s163" d="m588 561c4.62-0.54 7.59-0.62 11.5 2q1.23 0.99 2.5 2-0.49 0.99-1 2-0.92-0.74-1.88-1.5c-4.38-2.1-8.34-1.75-13.12-1.5q0.99-1.48 2-3z"/>
	<path class="s164" d="m587 531c3.37 3.37 4.21 7.4 5 12q-0.99 0-2 0-0.49 0.99-1 2-0.99-0.49-2-1c0-4.29 0-8.58 0-13z"/>
	<path class="s165" d="m630 465q0.49 0 1 0c0 2.31 0 4.62 0 7q-1.97 0-4 0 0 0.99 0 2 0.99 0 2 0-0.49 1.97-1 4-0.49-0.99-1-2-0.99 0-2 0-0.49 1.48-1 3c-1-2-1-2-0.06-5.13q0.52-1.41 1.06-2.87 2.46 0 5 0 0-2.95 0-6z"/>
	<path class="s166" d="m598 554q2.96 0.99 6 2 0 2.46 0 5-1.32-0.71-2.69-1.44c-2.88-1.36-5.19-2.1-8.31-2.56q0-0.49 0-1 2.46 0 5 0 0-0.99 0-2z"/>
	<path class="s167" d="m563 507c-1.76 2.18-2.69 2.94-5.48 3.51q-1.33 0.09-2.71 0.18-1.34 0.1-2.73 0.2c-1.03 0.05-1.03 0.05-2.08 0.11q0-0.99 0-2c4.54-1.45 8.18-2.24 13-2z"/>
	<path class="s168" d="m365 489q1.48 0 3 0c0 3.3 0 6.6 0 10-0.99 0.5-0.99 0.5-2 1-1.2-2.41-1.1-3.95-1.06-6.63q0.01-1.21 0.02-2.47 0.02-0.94 0.04-1.9z"/>
	<path class="s169" d="m629 363q0.99 0 2 0c1.03 4.41 1.04 6.93-1 11q-0.49 0-1 0-0.29-2.47-0.56-4.94-0.16-1.37-0.32-2.77-0.06-1.13-0.12-2.29 0.49-0.49 1-1z"/>
	<path class="s170" d="m584 701c-0.69 1.94-0.69 1.94-2 4-2.38 0.69-2.38 0.69-5 1q-2 0.48-4 1c2.01-4.02 6.71-6 11-6z"/>
	<path class="s171" d="m566 512q0.99 0.99 2 2-1.97 1.48-4 3 0.99-2.46 2-5zm-4 5q0.99 0.49 2 1c-0.71 0.65-0.71 0.65-1.44 1.31-1.8 1.71-1.8 1.71-2.56 4.69q1.48 0.49 3 1 0 0.99 0 2-1.97-0.99-4-2c-0.37-4.55-0.37-4.55 1.5-6.81q0.74-0.59 1.5-1.19z"/>
	<path class="s172" d="m418 495q0.49 0 1 0c0 2.97 0 5.94 0 9q-1.97 0.49-4 1 0.46-2.22 0.94-4.44 0.26-1.23 0.52-2.49c0.54-2.07 0.54-2.07 1.54-3.07z"/>
	<path class="s173" d="m507 394q1.48 0.49 3 1 0 1.48 0 3 0.99 0 2 0 0.49 1.48 1 3-1.48 0.99-3 2-0.12-1.17-0.25-2.38c-0.48-2.77-0.48-2.77-2.81-3.93q-0.96-0.34-1.94-0.69 0.99-0.99 2-2z"/>
	<path class="s174" d="m339 681q2.46 0 5 0 0.99 1.97 2 4c-0.99 0.5-0.99 0.5-2 1q-0.49 0.99-1 2c-4-4.75-4-4.75-4-7z"/>
	<path class="s175" d="m582 618c6.63 0.75 6.63 0.75 10 3q-0.49 1.48-1 3c-2.97-0.99-5.94-1.98-9-3q0-1.48 0-3z"/>
	<path class="s176" d="m352 540q0.99 0 2 0 0.33 0.96 0.68 1.95c1.15 2.29 1.15 2.29 3.7 2.66 1.36 0.07 1.36 0.07 2.74 0.14q1.36 0.08 2.76 0.17 1.05 0.04 2.12 0.08 0 0.49 0 1-3.22 0.04-6.44 0.06-1.78 0.02-3.62 0.04c-2.94-0.1-2.94-0.1-3.94-1.1q-0.06-2.5 0-5z"/>
	<path class="s177" d="m591 529q0.49 0.99 1 2 1.48 0.49 3 1c-1.49 2.48-1.49 2.48-3 5q-1.48-0.49-3-1c0.88-4.75 0.88-4.75 2-7z"/>
	<path class="s178" d="m568 482q2.46 0.49 5 1-0.49 1.97-1 4-2.46-0.49-5-1 0.49-1.97 1-4z"/>
	<path class="s179" d="m562.38 633.81c3.62 0.19 3.62 0.19 6.62 2.19-1 1-1 1-4.37 1.19-3.63-0.19-3.63-0.19-6.63-2.19 1-1 1-1 4.38-1.19z"/>
	<path class="s180" d="m379 547c-4.45 0.5-4.45 0.5-9 1q0-0.99 0-2-1.97-0.49-4-1c5.59-1.14 8.24-1.17 13 2z"/>
	<path class="s181" d="m663 676c-2.31 1.65-4.62 3.3-7 5q-1.48-1.48-3-3c5.5-3.13 5.5-3.13 10-2z"/>
	<path class="s182" d="m606 588q0.99 0.99 2 2c-1.65 1.32-3.3 2.64-5 4 1.88-4.88 1.88-4.88 3-6zm-8 9q0.99 0.49 2 1-1.97 1.97-4 4-0.99-0.49-2-1 1.97-1.97 4-4z"/>
	<path class="s183" d="m402 588q1.48 0.49 3 1c-1.88 5.75-1.88 5.75-3 8q-0.99 0-2 0c0.88-6.75 0.88-6.75 2-9z"/>
	<path class="s184" d="m655 567c0 3 0 3-1 5 2.31 0 4.62 0 7 0q0 0.49 0 1c-0.94 0.09-0.94 0.09-1.9 0.18q-1.22 0.13-2.48 0.26-1.21 0.12-2.46 0.24c-2.2 0.21-2.2 0.21-4.16 1.32 1.19-3.38 2.28-5.65 5-8z"/>
	<path class="s185" d="m412 565c0.88 2.48 1.12 3.66 0.25 6.19-1.25 1.81-1.25 1.81-4.25 2.81 0.62-5.54 0.62-5.54 2.56-7.88q0.71-0.55 1.44-1.12z"/>
	<path class="s186" d="m330 545c1.65 1.32 3.3 2.64 5 4q-0.99 2.46-2 5c-1.5-1.13-1.5-1.13-3-3-0.19-3.19-0.19-3.19 0-6z"/>
	<path class="s187" d="m471 501c1.6 3.2 0.03 5.72-1 9q-0.99 0-2 0c0-2.64 0-5.28 0-8q1.48-0.49 3-1z"/>
	<path class="s188" d="m360 434q0.99 0 2 0 0 2.46 0 5c-0.99 0.5-0.99 0.5-2 1q-0.99 1.48-2 3c-1-1-1-1-1.06-3.56q0.03-1.2 0.06-2.44 1.48 0 3 0 0-1.48 0-3z"/>
	<path class="s189" d="m421 405q1.97 0.99 4 2 0 1.48 0 3 0.99 0.99 2 2c-3.72-0.51-6.73-1.12-10-3q1.97 0 4 0 0-1.97 0-4z"/>
	<path class="s190" d="m561 395q0 1.48 0 3c-4.63 2.13-4.63 2.13-8 1 3.5-4 3.5-4 8-4z"/>
	<path class="s191" d="m661 542c2.06 2.25 2.06 2.25 4 5-0.25 2.31-0.25 2.31-1 4-2.88-2.38-3.61-4.3-4-8q0.49-0.49 1-1z"/>
	<path class="s192" d="m600 541c4.46 0.99 4.46 0.99 9 2-0.99 0.5-0.99 0.5-2 1q0 0.99 0 2c-4.46-0.99-4.46-0.99-9-2q0.99-0.49 2-1 0-0.99 0-2z"/>
	<path class="s193" d="m645 537c-0.88 4.88-0.88 4.88-2 6q-3.5 0.06-7 0 1.48-0.99 3-2c1.02-1.05 1.02-1.05 2.06-2.13 1.94-1.87 1.94-1.87 3.94-1.87z"/>
	<path class="s194" d="m618 535q2.96 0.99 6 2 0 1.48 0 3 0.99 0.49 2 1c-5.75-0.88-5.75-0.88-8-2q0-1.97 0-4z"/>
	<path class="s195" d="m675 530q0.99 0.49 2 1-0.49 0.99-1 2 0.99 0.49 2 1-1.94 2.06-4 4-0.99 0-2 0c1.88-6.88 1.88-6.88 3-8z"/>
	<path class="s196" d="m377 356q0.99 0.49 2 1 0 2.95 0 6-1.48 0-3 0c-0.99 0.5-0.99 0.5-2 1 0.55-3.37 1.05-5.08 3-8z"/>
	<path class="s197" d="m627 696q0.99 0.49 2 1c-1.98 2.31-3.96 4.62-6 7q-0.49-1.97-1-4c1.65-1.32 3.3-2.64 5-4z"/>
	<path class="s198" d="m359 697c4.75 0.75 4.75 0.75 7 3q0 1.48 0 3c-2.49-1.2-4.68-2.45-7-4q0-0.99 0-2z"/>
	<path class="s199" d="m653 679q1.48 0.49 3 1c-1.2 2.49-2.45 4.68-4 7q-1.48-0.49-3-1 0.99-1.45 2-2.94c2.09-2.59 2.09-2.59 2-4.06z"/>
	<path class="s200" d="m582 497c-1.97 2.52-2.97 2.99-6.19 3.69-1.39 0.15-1.39 0.15-2.81 0.31q-0.49-0.99-1-2c6.63-3.13 6.63-3.13 10-2z"/>
	<path class="s201" d="m425 469q2.46 0 5 0-1.97 0.49-4 1c-0.33 3.3-0.66 6.6-1 10q-0.49 0-1 0c-1.23-6.4-1.23-6.4-0.06-9.44q0.52-0.77 1.06-1.56z"/>
	<path class="s202" d="m647 458q0.15 0.95 0.31 1.94 0.34 1.01 0.69 2.06 1.48 0.49 3 1c-2.97-0.33-5.94-0.66-9-1q0-1.48 0-3c2-1 2-1 5-1z"/>
	<path class="s203" d="m430 408q2.95 0 6 0 0 2.46 0 5-2.46 0-5 0-0.49-2.46-1-5z"/>
	<path class="s204" d="m601 386c4.75 0.75 4.75 0.75 7 3q-1.97 1.48-4 3c-3-3.75-3-3.75-3-6z"/>
	<path class="s205" d="m603 631q2.96 0 6 0c-1.75 2-1.75 2-4 4q-1.97 0-4 0 0.99-1.97 2-4z"/>
	<path class="s206" d="m648 570q0.99 1.48 2 3-0.49 1.48-1 3-2.46 0.49-5 1c1.2-2.49 2.45-4.68 4-7z"/>
	<path class="s207" d="m325 544c1.13 1.56 1.13 1.56 2 4-0.88 3.75-0.88 3.75-2 7q-0.99-0.49-2-1 0-3 0-6 0.99 0 2 0 0-1.97 0-4z"/>
	<path class="s208" d="m611 514c2.06 0.44 2.06 0.44 4 1q-0.99 2.96-2 6-0.99 0-2 0-0.57-2.99-1-6 0.49-0.49 1-1z"/>
	<path class="s209" d="m492 491q1.48 0.49 3 1c-0.99 1.49-0.99 1.49-2 3-0.45 2.05-0.45 2.05-0.63 4.19q-0.18 1.88-0.37 3.81-0.49 0-1 0-0.33-2.15-0.63-4.31-0.17-1.2-0.35-2.43c-0.02-2.26-0.02-2.26 1.98-5.26z"/>
	<path class="s210" d="m407 432c1.24 3.58 0.75 6.34 0 10q-0.99 0-2 0c-0.2-6.05-0.2-6.05 0-8q0.99-0.99 2-2z"/>
	<path class="s211" d="m520 641q0.99 0.49 2 1-0.49 0.49-1 1 1.48 0.99 3 2c-2.38 1.06-2.38 1.06-5 2q-0.99-0.49-2-1c1.88-3.88 1.88-3.88 3-5z"/>
	<path class="s212" d="m524 638q1.48 0.49 3 1c-1.49 2.48-1.49 2.48-3 5q-1.97-0.49-4-1c1.32-1.65 2.64-3.3 4-5z"/>
	<path class="s213" d="m316 586q1.48 0 3 0-0.49 1.97-1 4-1.97 0.49-4 1c0.88-3.88 0.88-3.88 2-5z"/>
	<path class="s214" d="m583 542c1.94 0.31 1.94 0.31 4 1q0.49 1.48 1 3-1.48 0-3 0-0.49 0.99-1 2c-1-1-1-1-1.06-3.56q0.03-1.2 0.06-2.44z"/>
	<path class="s215" d="m580 535c4 4.75 4 4.75 4 7q-2.46-0.49-5-1c0-3 0-3 1-6z"/>
	<path class="s216" d="m628 487q0.49 0 1 0c-0.33 3.3-0.66 6.6-1 10q-1.48-0.49-3-1c0.99-2.97 1.98-5.94 3-9z"/>
	<path class="s217" d="m637 430q1.48 0.49 3 1 0 2.95 0 6c-0.99 0.5-0.99 0.5-2 1-1.35-2.71-1.07-5.01-1-8z"/>
	<path class="s218" d="m621 697q1.48 0 3 0c-0.81 2.44-0.81 2.44-2 5q-1.48 0.49-3 1c0.88-4.88 0.88-4.88 2-6z"/>
	<path class="s219" d="m415 668q2.46 0 5 0 0 1.48 0 3-0.99 0-2 0-0.49 1.48-1 3c-2-3.75-2-3.75-2-6z"/>
	<path class="s220" d="m397 657q0.99 0 2 0c0.33 2.97 0.66 5.94 1 9q-0.99-0.49-2-1c-0.59-2.65-0.74-5.29-1-8z"/>
	<path class="s221" d="m609 531q1.48 0 3 0-0.49 2.96-1 6-1.48 0-3 0 0.49-2.96 1-6z"/>
	<path class="s222" d="m702 500c0.63 1.81 0.63 1.81 1 4-0.99 1.49-0.99 1.49-2 3q-1.48-1.48-3-3 1.97-1.97 4-4z"/>
	<path class="s223" d="m642 433c1.04 3.38 1.08 6.48 1 10q-1.48 0.49-3 1c0.88-7.63 0.88-7.63 2-11z"/>
	<path class="s224" d="m361 428q0.49 0.99 1 2 0.99 0 2 0c-0.33 2.31-0.66 4.62-1 7q-0.49-1.48-1-3-0.99 0-2 0 0.49-2.95 1-6z"/>
	<path class="s225" d="m579 693q-0.99 2.96-2 6c-3 0-3 0-5-1 4.75-5 4.75-5 7-5z"/>
	<path class="s226" d="m510 618q-0.49 0.99-1 2-2.95 0-6 0-0.49-0.99-1-2c3.29-1.1 4.71-0.8 8 0z"/>
	<path class="s227" d="m302 574q0.99 0.99 2 2-2.44 2.56-5 5-0.99 0-2 0c1.29-2.88 2.66-4.87 5-7z"/>
	<path class="s228" d="m629 515q0.99 0 2 0c0 2.31 0 4.62 0 7q-1.97-0.49-4-1 0.99-2.96 2-6z"/>
	<path class="s229" d="m619 507q0.99 0.49 2 1c-0.56 3.27-1.5 4.83-4 7-0.2-3.72-0.15-4.77 2-8z"/>
	<path class="s230" d="m611 502c2.48 0.99 2.48 0.99 5 2-0.99 1.49-0.99 1.49-2 3q-0.99-0.49-2-1-0.49 1.48-1 3c0-2.31 0-4.62 0-7z"/>
	<path class="s231" d="m605 497c0.99 0.5 0.99 0.5 2 1q0.61 3.48 1 7-1.48 0-3 0c0-2.64 0-5.28 0-8z"/>
	<path class="s232" d="m386 494q0.99 0.49 2 1-0.49 1.48-1 3c-2.06 0.69-2.06 0.69-4 1q0-1.97 0-4 1.48-0.49 3-1z"/>
	<path class="s233" d="m500 487c2.31 0 4.62 0 7 0q0 1.48 0 3c-2.31-0.33-4.62-0.66-7-1q0-0.99 0-2z"/>
	<path class="s234" d="m504 469c-0.99 1.49-0.99 1.49-2 3-3.63 0.19-3.63 0.19-7 0 3.07-2.73 4.9-3.34 9-3z"/>
	<path class="s235" d="m583 610c-0.66 2.64-1.32 5.28-2 8-3-3.75-3-3.75-3-6 3-2 3-2 5-2z"/>
	<path class="s236" d="m624 607c-2 2-2 2-5.13 2.13-1.42-0.07-1.42-0.07-2.87-0.13q0-0.99 0-2c3.05-0.98 4.95-0.98 8 0z"/>
	<path class="s237" d="m346 575q1.97 0.49 4 1 0 1.97 0 4-1.48-0.49-3-1c-0.69-2.06-0.69-2.06-1-4z"/>
	<path class="s238" d="m588 543q1.48 0 3 0-0.49 2.96-1 6-1.97-0.49-4-1 0-0.99 0-2 0.99 0 2 0 0-1.48 0-3z"/>
	<path class="s239" d="m273 539q2.95 0 6 0-0.99 1.97-2 4-1.97-0.99-4-2 0-0.99 0-2z"/>
	<path class="s240" d="m571 523q0.49 1.97 1 4c-1.98 0.99-1.98 0.99-4 2q-0.49-1.48-1-3 1.97-1.48 4-3z"/>
	<path class="s241" d="m576 520q1.48 0.49 3 1c0.33 2.64 0.66 5.28 1 8-0.99 0.5-0.99 0.5-2 1-0.66-3.3-1.32-6.6-2-10z"/>
	<path class="s242" d="m509 508q0 0.99 0 2c-4.07 2.04-6.59 2.03-11 1q0-0.49 0-1 2.19-0.5 4.38-1c1.21-0.28 1.21-0.28 2.46-0.56 2.16-0.44 2.16-0.44 4.16-0.44z"/>
	<path class="s243" d="m369 505q0.99 0.49 2 1 0 1.97 0 4-0.99 0-2 0-0.49 1.97-1 4c-0.1-6.15-0.1-6.15 0-8q0.49-0.49 1-1z"/>
	<path class="s244" d="m495 490q1.48 0.49 3 1c-2.48 3.46-2.48 3.46-5 7q-0.49-1.48-1-3c1.44-2.69 1.44-2.69 3-5z"/>
	<path class="s245" d="m622 480q1.97 0.49 4 1c-0.31 1.88-0.31 1.88-1 4q-1.48 0.99-3 2c0-2.31 0-4.62 0-7z"/>
</svg>