<svg width="64" height="64" viewBox="0 0 64 64" fill="none" xmlns="http://www.w3.org/2000/svg">
  <!-- Panda head -->
  <circle cx="32" cy="32" r="28" fill="white" stroke="#374151" stroke-width="2"/>
  
  <!-- Panda ears -->
  <circle cx="20" cy="18" r="8" fill="black"/>
  <circle cx="44" cy="18" r="8" fill="black"/>
  
  <!-- Panda eyes -->
  <circle cx="26" cy="28" r="6" fill="black"/>
  <circle cx="38" cy="28" r="6" fill="black"/>
  <circle cx="27" cy="26" r="2" fill="white"/>
  <circle cx="39" cy="26" r="2" fill="white"/>
  
  <!-- Panda nose -->
  <ellipse cx="32" cy="36" rx="3" ry="2" fill="black"/>
  
  <!-- Panda mouth -->
  <path d="M32 40 Q28 44 24 42" stroke="black" stroke-width="2" fill="none"/>
  <path d="M32 40 Q36 44 40 42" stroke="black" stroke-width="2" fill="none"/>
  
  <!-- Bamboo stalks -->
  <rect x="8" y="45" width="4" height="15" fill="#22c55e" rx="2"/>
  <rect x="52" y="45" width="4" height="15" fill="#22c55e" rx="2"/>
  
  <!-- Bamboo leaves -->
  <ellipse cx="10" cy="50" rx="8" ry="3" fill="#16a34a" transform="rotate(-15 10 50)"/>
  <ellipse cx="54" cy="50" rx="8" ry="3" fill="#16a34a" transform="rotate(15 54 50)"/>
</svg>
